%TF.GenerationSoftware,KiCad,Pcbnew,6.0.2+dfsg-1*%
%TF.CreationDate,2023-09-26T22:36:53+02:00*%
%TF.ProjectId,presence_sensor,70726573-656e-4636-955f-73656e736f72,rev?*%
%TF.SameCoordinates,Original*%
%TF.FileFunction,Paste,Top*%
%TF.FilePolarity,Positive*%
%FSLAX46Y46*%
G04 Gerber Fmt 4.6, Leading zero omitted, Abs format (unit mm)*
G04 Created by KiCad (PCBNEW 6.0.2+dfsg-1) date 2023-09-26 22:36:53*
%MOMM*%
%LPD*%
G01*
G04 APERTURE LIST*
G04 Aperture macros list*
%AMRoundRect*
0 Rectangle with rounded corners*
0 $1 Rounding radius*
0 $2 $3 $4 $5 $6 $7 $8 $9 X,Y pos of 4 corners*
0 Add a 4 corners polygon primitive as box body*
4,1,4,$2,$3,$4,$5,$6,$7,$8,$9,$2,$3,0*
0 Add four circle primitives for the rounded corners*
1,1,$1+$1,$2,$3*
1,1,$1+$1,$4,$5*
1,1,$1+$1,$6,$7*
1,1,$1+$1,$8,$9*
0 Add four rect primitives between the rounded corners*
20,1,$1+$1,$2,$3,$4,$5,0*
20,1,$1+$1,$4,$5,$6,$7,0*
20,1,$1+$1,$6,$7,$8,$9,0*
20,1,$1+$1,$8,$9,$2,$3,0*%
G04 Aperture macros list end*
%ADD10RoundRect,0.150000X0.150000X-0.587500X0.150000X0.587500X-0.150000X0.587500X-0.150000X-0.587500X0*%
%ADD11R,1.500000X2.000000*%
%ADD12R,3.800000X2.000000*%
%ADD13RoundRect,0.250001X-0.462499X-0.624999X0.462499X-0.624999X0.462499X0.624999X-0.462499X0.624999X0*%
%ADD14RoundRect,0.250000X-0.400000X-0.625000X0.400000X-0.625000X0.400000X0.625000X-0.400000X0.625000X0*%
%ADD15RoundRect,0.250000X0.412500X0.650000X-0.412500X0.650000X-0.412500X-0.650000X0.412500X-0.650000X0*%
%ADD16RoundRect,0.250000X0.400000X0.625000X-0.400000X0.625000X-0.400000X-0.625000X0.400000X-0.625000X0*%
%ADD17RoundRect,0.250000X-0.650000X0.412500X-0.650000X-0.412500X0.650000X-0.412500X0.650000X0.412500X0*%
%ADD18RoundRect,0.250001X0.462499X0.624999X-0.462499X0.624999X-0.462499X-0.624999X0.462499X-0.624999X0*%
%ADD19RoundRect,0.150000X0.150000X-0.825000X0.150000X0.825000X-0.150000X0.825000X-0.150000X-0.825000X0*%
%ADD20RoundRect,0.250000X0.650000X-0.412500X0.650000X0.412500X-0.650000X0.412500X-0.650000X-0.412500X0*%
G04 APERTURE END LIST*
D10*
%TO.C,Q40*%
X88655000Y-89272500D03*
X90555000Y-89272500D03*
X89605000Y-87397500D03*
%TD*%
D11*
%TO.C,U50*%
X79205000Y-64850000D03*
D12*
X76905000Y-71150000D03*
D11*
X76905000Y-64850000D03*
X74605000Y-64850000D03*
%TD*%
D13*
%TO.C,D10*%
X72242500Y-76905000D03*
X75217500Y-76905000D03*
%TD*%
D14*
%TO.C,R20*%
X72180000Y-85160000D03*
X75280000Y-85160000D03*
%TD*%
%TO.C,R21*%
X78530000Y-88970000D03*
X81630000Y-88970000D03*
%TD*%
D15*
%TO.C,C1*%
X59417500Y-80080000D03*
X56292500Y-80080000D03*
%TD*%
D14*
%TO.C,R4*%
X65830000Y-92526000D03*
X68930000Y-92526000D03*
%TD*%
D16*
%TO.C,R30*%
X91282000Y-79572000D03*
X88182000Y-79572000D03*
%TD*%
D14*
%TO.C,R3*%
X60242000Y-92526000D03*
X63342000Y-92526000D03*
%TD*%
D10*
%TO.C,Q30*%
X78495000Y-75937500D03*
X80395000Y-75937500D03*
X79445000Y-74062500D03*
%TD*%
D17*
%TO.C,C51*%
X71190000Y-64547500D03*
X71190000Y-67672500D03*
%TD*%
D14*
%TO.C,R10*%
X65830000Y-70555000D03*
X68930000Y-70555000D03*
%TD*%
D16*
%TO.C,R2*%
X63215000Y-88970000D03*
X60115000Y-88970000D03*
%TD*%
%TO.C,R31*%
X91282000Y-76905000D03*
X88182000Y-76905000D03*
%TD*%
D14*
%TO.C,R1*%
X72180000Y-88970000D03*
X75280000Y-88970000D03*
%TD*%
D16*
%TO.C,R100*%
X63062000Y-76524000D03*
X59962000Y-76524000D03*
%TD*%
D14*
%TO.C,R23*%
X78530000Y-85160000D03*
X81630000Y-85160000D03*
%TD*%
D15*
%TO.C,C10*%
X68981000Y-76524000D03*
X65856000Y-76524000D03*
%TD*%
D18*
%TO.C,D30*%
X91219500Y-82366000D03*
X88244500Y-82366000D03*
%TD*%
D16*
%TO.C,R5*%
X68930000Y-88970000D03*
X65830000Y-88970000D03*
%TD*%
D19*
%TO.C,U1*%
X61860000Y-85095000D03*
X63130000Y-85095000D03*
X64400000Y-85095000D03*
X65670000Y-85095000D03*
X66940000Y-85095000D03*
X68210000Y-85095000D03*
X69480000Y-85095000D03*
X69480000Y-80145000D03*
X68210000Y-80145000D03*
X66940000Y-80145000D03*
X65670000Y-80145000D03*
X64400000Y-80145000D03*
X63130000Y-80145000D03*
X61860000Y-80145000D03*
%TD*%
D16*
%TO.C,R11*%
X68904000Y-72968000D03*
X65804000Y-72968000D03*
%TD*%
D13*
%TO.C,D60*%
X88512500Y-93415000D03*
X91487500Y-93415000D03*
%TD*%
D16*
%TO.C,R22*%
X75280000Y-80080000D03*
X72180000Y-80080000D03*
%TD*%
D10*
%TO.C,Q20*%
X78495000Y-81017500D03*
X80395000Y-81017500D03*
X79445000Y-79142500D03*
%TD*%
D16*
%TO.C,R60*%
X86550000Y-93415000D03*
X83450000Y-93415000D03*
%TD*%
D20*
%TO.C,C52*%
X82620000Y-68053500D03*
X82620000Y-64928500D03*
%TD*%
M02*
