%FSLAX45Y45*%
G04 Gerber Fmt 4.5, Leading zero omitted, Abs format (unit mm)*
G04 Created by KiCad (PCBNEW 6.0.2+dfsg-1) date 2023-09-26 22:37:19*
%MOMM*%
%LPD*%
G01*
G04 APERTURE LIST*
%TA.AperFunction,Profile*%
%ADD10C,0.100000*%
%TD*%
%ADD11C,0.200000*%
%ADD12C,0.220000*%
G04 APERTURE END LIST*
D10*
X10000000Y-5500000D02*
G75*
G03*
X9500000Y-5000000I-500000J0D01*
G01*
X9500000Y-10000000D02*
X5500000Y-10000000D01*
X9500000Y-10000000D02*
G75*
G03*
X10000000Y-9500000I0J500000D01*
G01*
X5500000Y-5000000D02*
G75*
G03*
X5000000Y-5500000I0J-500000D01*
G01*
X10000000Y-5500000D02*
X10000000Y-9500000D01*
X5000000Y-9500000D02*
G75*
G03*
X5500000Y-10000000I500000J0D01*
G01*
X5500000Y-5000000D02*
X9500000Y-5000000D01*
X5000000Y-9500000D02*
X5000000Y-5500000D01*
D11*
D12*
X5290000Y-5290000D02*
X5510000Y-5510000D01*
X5510000Y-5290000D02*
X5290000Y-5510000D01*
X5290000Y-9290000D02*
X5510000Y-9510000D01*
X5510000Y-9290000D02*
X5290000Y-9510000D01*
X9490000Y-5290000D02*
X9710000Y-5510000D01*
X9710000Y-5290000D02*
X9490000Y-5510000D01*
X9490000Y-9290000D02*
X9710000Y-9510000D01*
X9710000Y-9290000D02*
X9490000Y-9510000D01*
D11*
X5252619Y-10315476D02*
X5252619Y-10115476D01*
X5300238Y-10115476D01*
X5328810Y-10125000D01*
X5347857Y-10144048D01*
X5357381Y-10163095D01*
X5366905Y-10201190D01*
X5366905Y-10229762D01*
X5357381Y-10267857D01*
X5347857Y-10286905D01*
X5328810Y-10305952D01*
X5300238Y-10315476D01*
X5252619Y-10315476D01*
X5452619Y-10315476D02*
X5452619Y-10182143D01*
X5452619Y-10220238D02*
X5462143Y-10201190D01*
X5471667Y-10191667D01*
X5490714Y-10182143D01*
X5509762Y-10182143D01*
X5576429Y-10315476D02*
X5576429Y-10182143D01*
X5576429Y-10115476D02*
X5566905Y-10125000D01*
X5576429Y-10134524D01*
X5585952Y-10125000D01*
X5576429Y-10115476D01*
X5576429Y-10134524D01*
X5700238Y-10315476D02*
X5681190Y-10305952D01*
X5671667Y-10286905D01*
X5671667Y-10115476D01*
X5805000Y-10315476D02*
X5785952Y-10305952D01*
X5776428Y-10286905D01*
X5776428Y-10115476D01*
X6033571Y-10315476D02*
X6033571Y-10115476D01*
X6100238Y-10258333D01*
X6166905Y-10115476D01*
X6166905Y-10315476D01*
X6347857Y-10315476D02*
X6347857Y-10210714D01*
X6338333Y-10191667D01*
X6319286Y-10182143D01*
X6281190Y-10182143D01*
X6262143Y-10191667D01*
X6347857Y-10305952D02*
X6328809Y-10315476D01*
X6281190Y-10315476D01*
X6262143Y-10305952D01*
X6252619Y-10286905D01*
X6252619Y-10267857D01*
X6262143Y-10248810D01*
X6281190Y-10239286D01*
X6328809Y-10239286D01*
X6347857Y-10229762D01*
X6443095Y-10182143D02*
X6443095Y-10382143D01*
X6443095Y-10191667D02*
X6462143Y-10182143D01*
X6500238Y-10182143D01*
X6519286Y-10191667D01*
X6528809Y-10201190D01*
X6538333Y-10220238D01*
X6538333Y-10277381D01*
X6528809Y-10296429D01*
X6519286Y-10305952D01*
X6500238Y-10315476D01*
X6462143Y-10315476D01*
X6443095Y-10305952D01*
X6624048Y-10296429D02*
X6633571Y-10305952D01*
X6624048Y-10315476D01*
X6614524Y-10305952D01*
X6624048Y-10296429D01*
X6624048Y-10315476D01*
X6624048Y-10191667D02*
X6633571Y-10201190D01*
X6624048Y-10210714D01*
X6614524Y-10201190D01*
X6624048Y-10191667D01*
X6624048Y-10210714D01*
X4795000Y-10545000D02*
X4995000Y-10745000D01*
X4995000Y-10545000D02*
X4795000Y-10745000D01*
X5243095Y-10554524D02*
X5252619Y-10545000D01*
X5271667Y-10535476D01*
X5319286Y-10535476D01*
X5338333Y-10545000D01*
X5347857Y-10554524D01*
X5357381Y-10573571D01*
X5357381Y-10592619D01*
X5347857Y-10621190D01*
X5233571Y-10735476D01*
X5357381Y-10735476D01*
X5443095Y-10716429D02*
X5452619Y-10725952D01*
X5443095Y-10735476D01*
X5433571Y-10725952D01*
X5443095Y-10716429D01*
X5443095Y-10735476D01*
X5528810Y-10554524D02*
X5538333Y-10545000D01*
X5557381Y-10535476D01*
X5605000Y-10535476D01*
X5624048Y-10545000D01*
X5633571Y-10554524D01*
X5643095Y-10573571D01*
X5643095Y-10592619D01*
X5633571Y-10621190D01*
X5519286Y-10735476D01*
X5643095Y-10735476D01*
X5766905Y-10535476D02*
X5785952Y-10535476D01*
X5805000Y-10545000D01*
X5814524Y-10554524D01*
X5824048Y-10573571D01*
X5833571Y-10611667D01*
X5833571Y-10659286D01*
X5824048Y-10697381D01*
X5814524Y-10716429D01*
X5805000Y-10725952D01*
X5785952Y-10735476D01*
X5766905Y-10735476D01*
X5747857Y-10725952D01*
X5738333Y-10716429D01*
X5728809Y-10697381D01*
X5719286Y-10659286D01*
X5719286Y-10611667D01*
X5728809Y-10573571D01*
X5738333Y-10554524D01*
X5747857Y-10545000D01*
X5766905Y-10535476D01*
X5957381Y-10535476D02*
X5976428Y-10535476D01*
X5995476Y-10545000D01*
X6005000Y-10554524D01*
X6014524Y-10573571D01*
X6024048Y-10611667D01*
X6024048Y-10659286D01*
X6014524Y-10697381D01*
X6005000Y-10716429D01*
X5995476Y-10725952D01*
X5976428Y-10735476D01*
X5957381Y-10735476D01*
X5938333Y-10725952D01*
X5928809Y-10716429D01*
X5919286Y-10697381D01*
X5909762Y-10659286D01*
X5909762Y-10611667D01*
X5919286Y-10573571D01*
X5928809Y-10554524D01*
X5938333Y-10545000D01*
X5957381Y-10535476D01*
X6109762Y-10735476D02*
X6109762Y-10602143D01*
X6109762Y-10621190D02*
X6119286Y-10611667D01*
X6138333Y-10602143D01*
X6166905Y-10602143D01*
X6185952Y-10611667D01*
X6195476Y-10630714D01*
X6195476Y-10735476D01*
X6195476Y-10630714D02*
X6205000Y-10611667D01*
X6224048Y-10602143D01*
X6252619Y-10602143D01*
X6271667Y-10611667D01*
X6281190Y-10630714D01*
X6281190Y-10735476D01*
X6376428Y-10735476D02*
X6376428Y-10602143D01*
X6376428Y-10621190D02*
X6385952Y-10611667D01*
X6405000Y-10602143D01*
X6433571Y-10602143D01*
X6452619Y-10611667D01*
X6462143Y-10630714D01*
X6462143Y-10735476D01*
X6462143Y-10630714D02*
X6471667Y-10611667D01*
X6490714Y-10602143D01*
X6519286Y-10602143D01*
X6538333Y-10611667D01*
X6547857Y-10630714D01*
X6547857Y-10735476D01*
X6938333Y-10525952D02*
X6766905Y-10783095D01*
X7195476Y-10535476D02*
X7214524Y-10535476D01*
X7233571Y-10545000D01*
X7243095Y-10554524D01*
X7252619Y-10573571D01*
X7262143Y-10611667D01*
X7262143Y-10659286D01*
X7252619Y-10697381D01*
X7243095Y-10716429D01*
X7233571Y-10725952D01*
X7214524Y-10735476D01*
X7195476Y-10735476D01*
X7176428Y-10725952D01*
X7166905Y-10716429D01*
X7157381Y-10697381D01*
X7147857Y-10659286D01*
X7147857Y-10611667D01*
X7157381Y-10573571D01*
X7166905Y-10554524D01*
X7176428Y-10545000D01*
X7195476Y-10535476D01*
X7347857Y-10716429D02*
X7357381Y-10725952D01*
X7347857Y-10735476D01*
X7338333Y-10725952D01*
X7347857Y-10716429D01*
X7347857Y-10735476D01*
X7481190Y-10535476D02*
X7500238Y-10535476D01*
X7519286Y-10545000D01*
X7528809Y-10554524D01*
X7538333Y-10573571D01*
X7547857Y-10611667D01*
X7547857Y-10659286D01*
X7538333Y-10697381D01*
X7528809Y-10716429D01*
X7519286Y-10725952D01*
X7500238Y-10735476D01*
X7481190Y-10735476D01*
X7462143Y-10725952D01*
X7452619Y-10716429D01*
X7443095Y-10697381D01*
X7433571Y-10659286D01*
X7433571Y-10611667D01*
X7443095Y-10573571D01*
X7452619Y-10554524D01*
X7462143Y-10545000D01*
X7481190Y-10535476D01*
X7662143Y-10621190D02*
X7643095Y-10611667D01*
X7633571Y-10602143D01*
X7624048Y-10583095D01*
X7624048Y-10573571D01*
X7633571Y-10554524D01*
X7643095Y-10545000D01*
X7662143Y-10535476D01*
X7700238Y-10535476D01*
X7719286Y-10545000D01*
X7728809Y-10554524D01*
X7738333Y-10573571D01*
X7738333Y-10583095D01*
X7728809Y-10602143D01*
X7719286Y-10611667D01*
X7700238Y-10621190D01*
X7662143Y-10621190D01*
X7643095Y-10630714D01*
X7633571Y-10640238D01*
X7624048Y-10659286D01*
X7624048Y-10697381D01*
X7633571Y-10716429D01*
X7643095Y-10725952D01*
X7662143Y-10735476D01*
X7700238Y-10735476D01*
X7719286Y-10725952D01*
X7728809Y-10716429D01*
X7738333Y-10697381D01*
X7738333Y-10659286D01*
X7728809Y-10640238D01*
X7719286Y-10630714D01*
X7700238Y-10621190D01*
X7909762Y-10535476D02*
X7871667Y-10535476D01*
X7852619Y-10545000D01*
X7843095Y-10554524D01*
X7824048Y-10583095D01*
X7814524Y-10621190D01*
X7814524Y-10697381D01*
X7824048Y-10716429D01*
X7833571Y-10725952D01*
X7852619Y-10735476D01*
X7890714Y-10735476D01*
X7909762Y-10725952D01*
X7919286Y-10716429D01*
X7928809Y-10697381D01*
X7928809Y-10649762D01*
X7919286Y-10630714D01*
X7909762Y-10621190D01*
X7890714Y-10611667D01*
X7852619Y-10611667D01*
X7833571Y-10621190D01*
X7824048Y-10630714D01*
X7814524Y-10649762D01*
X8100238Y-10535476D02*
X8062143Y-10535476D01*
X8043095Y-10545000D01*
X8033571Y-10554524D01*
X8014524Y-10583095D01*
X8005000Y-10621190D01*
X8005000Y-10697381D01*
X8014524Y-10716429D01*
X8024048Y-10725952D01*
X8043095Y-10735476D01*
X8081190Y-10735476D01*
X8100238Y-10725952D01*
X8109762Y-10716429D01*
X8119286Y-10697381D01*
X8119286Y-10649762D01*
X8109762Y-10630714D01*
X8100238Y-10621190D01*
X8081190Y-10611667D01*
X8043095Y-10611667D01*
X8024048Y-10621190D01*
X8014524Y-10630714D01*
X8005000Y-10649762D01*
X8195476Y-10535476D02*
X8195476Y-10573571D01*
X8271667Y-10535476D02*
X8271667Y-10573571D01*
X8566905Y-10811667D02*
X8557381Y-10802143D01*
X8538333Y-10773571D01*
X8528810Y-10754524D01*
X8519286Y-10725952D01*
X8509762Y-10678333D01*
X8509762Y-10640238D01*
X8519286Y-10592619D01*
X8528810Y-10564048D01*
X8538333Y-10545000D01*
X8557381Y-10516429D01*
X8566905Y-10506905D01*
X8728810Y-10602143D02*
X8728810Y-10735476D01*
X8681190Y-10525952D02*
X8633571Y-10668810D01*
X8757381Y-10668810D01*
X8985952Y-10735476D02*
X8985952Y-10535476D01*
X9071667Y-10735476D02*
X9071667Y-10630714D01*
X9062143Y-10611667D01*
X9043095Y-10602143D01*
X9014524Y-10602143D01*
X8995476Y-10611667D01*
X8985952Y-10621190D01*
X9195476Y-10735476D02*
X9176429Y-10725952D01*
X9166905Y-10716429D01*
X9157381Y-10697381D01*
X9157381Y-10640238D01*
X9166905Y-10621190D01*
X9176429Y-10611667D01*
X9195476Y-10602143D01*
X9224048Y-10602143D01*
X9243095Y-10611667D01*
X9252619Y-10621190D01*
X9262143Y-10640238D01*
X9262143Y-10697381D01*
X9252619Y-10716429D01*
X9243095Y-10725952D01*
X9224048Y-10735476D01*
X9195476Y-10735476D01*
X9376429Y-10735476D02*
X9357381Y-10725952D01*
X9347857Y-10706905D01*
X9347857Y-10535476D01*
X9528810Y-10725952D02*
X9509762Y-10735476D01*
X9471667Y-10735476D01*
X9452619Y-10725952D01*
X9443095Y-10706905D01*
X9443095Y-10630714D01*
X9452619Y-10611667D01*
X9471667Y-10602143D01*
X9509762Y-10602143D01*
X9528810Y-10611667D01*
X9538333Y-10630714D01*
X9538333Y-10649762D01*
X9443095Y-10668810D01*
X9614524Y-10725952D02*
X9633571Y-10735476D01*
X9671667Y-10735476D01*
X9690714Y-10725952D01*
X9700238Y-10706905D01*
X9700238Y-10697381D01*
X9690714Y-10678333D01*
X9671667Y-10668810D01*
X9643095Y-10668810D01*
X9624048Y-10659286D01*
X9614524Y-10640238D01*
X9614524Y-10630714D01*
X9624048Y-10611667D01*
X9643095Y-10602143D01*
X9671667Y-10602143D01*
X9690714Y-10611667D01*
X9766905Y-10811667D02*
X9776429Y-10802143D01*
X9795476Y-10773571D01*
X9805000Y-10754524D01*
X9814524Y-10725952D01*
X9824048Y-10678333D01*
X9824048Y-10640238D01*
X9814524Y-10592619D01*
X9805000Y-10564048D01*
X9795476Y-10545000D01*
X9776429Y-10516429D01*
X9766905Y-10506905D01*
X10128810Y-10811667D02*
X10119286Y-10802143D01*
X10100238Y-10773571D01*
X10090714Y-10754524D01*
X10081190Y-10725952D01*
X10071667Y-10678333D01*
X10071667Y-10640238D01*
X10081190Y-10592619D01*
X10090714Y-10564048D01*
X10100238Y-10545000D01*
X10119286Y-10516429D01*
X10128810Y-10506905D01*
X10205000Y-10602143D02*
X10205000Y-10735476D01*
X10205000Y-10621190D02*
X10214524Y-10611667D01*
X10233571Y-10602143D01*
X10262143Y-10602143D01*
X10281190Y-10611667D01*
X10290714Y-10630714D01*
X10290714Y-10735476D01*
X10414524Y-10735476D02*
X10395476Y-10725952D01*
X10385952Y-10716429D01*
X10376429Y-10697381D01*
X10376429Y-10640238D01*
X10385952Y-10621190D01*
X10395476Y-10611667D01*
X10414524Y-10602143D01*
X10443095Y-10602143D01*
X10462143Y-10611667D01*
X10471667Y-10621190D01*
X10481190Y-10640238D01*
X10481190Y-10697381D01*
X10471667Y-10716429D01*
X10462143Y-10725952D01*
X10443095Y-10735476D01*
X10414524Y-10735476D01*
X10538333Y-10602143D02*
X10614524Y-10602143D01*
X10566905Y-10535476D02*
X10566905Y-10706905D01*
X10576429Y-10725952D01*
X10595476Y-10735476D01*
X10614524Y-10735476D01*
X10833571Y-10602143D02*
X10833571Y-10802143D01*
X10833571Y-10611667D02*
X10852619Y-10602143D01*
X10890714Y-10602143D01*
X10909762Y-10611667D01*
X10919286Y-10621190D01*
X10928810Y-10640238D01*
X10928810Y-10697381D01*
X10919286Y-10716429D01*
X10909762Y-10725952D01*
X10890714Y-10735476D01*
X10852619Y-10735476D01*
X10833571Y-10725952D01*
X11043095Y-10735476D02*
X11024048Y-10725952D01*
X11014524Y-10706905D01*
X11014524Y-10535476D01*
X11205000Y-10735476D02*
X11205000Y-10630714D01*
X11195476Y-10611667D01*
X11176429Y-10602143D01*
X11138333Y-10602143D01*
X11119286Y-10611667D01*
X11205000Y-10725952D02*
X11185952Y-10735476D01*
X11138333Y-10735476D01*
X11119286Y-10725952D01*
X11109762Y-10706905D01*
X11109762Y-10687857D01*
X11119286Y-10668810D01*
X11138333Y-10659286D01*
X11185952Y-10659286D01*
X11205000Y-10649762D01*
X11271667Y-10602143D02*
X11347857Y-10602143D01*
X11300238Y-10535476D02*
X11300238Y-10706905D01*
X11309762Y-10725952D01*
X11328809Y-10735476D01*
X11347857Y-10735476D01*
X11490714Y-10725952D02*
X11471667Y-10735476D01*
X11433571Y-10735476D01*
X11414524Y-10725952D01*
X11405000Y-10706905D01*
X11405000Y-10630714D01*
X11414524Y-10611667D01*
X11433571Y-10602143D01*
X11471667Y-10602143D01*
X11490714Y-10611667D01*
X11500238Y-10630714D01*
X11500238Y-10649762D01*
X11405000Y-10668810D01*
X11671667Y-10735476D02*
X11671667Y-10535476D01*
X11671667Y-10725952D02*
X11652619Y-10735476D01*
X11614524Y-10735476D01*
X11595476Y-10725952D01*
X11585952Y-10716429D01*
X11576428Y-10697381D01*
X11576428Y-10640238D01*
X11585952Y-10621190D01*
X11595476Y-10611667D01*
X11614524Y-10602143D01*
X11652619Y-10602143D01*
X11671667Y-10611667D01*
X11747857Y-10811667D02*
X11757381Y-10802143D01*
X11776428Y-10773571D01*
X11785952Y-10754524D01*
X11795476Y-10725952D01*
X11805000Y-10678333D01*
X11805000Y-10640238D01*
X11795476Y-10592619D01*
X11785952Y-10564048D01*
X11776428Y-10545000D01*
X11757381Y-10516429D01*
X11747857Y-10506905D01*
M02*
