%TF.GenerationSoftware,KiCad,Pcbnew,6.0.2+dfsg-1*%
%TF.CreationDate,2023-09-26T22:36:55+02:00*%
%TF.ProjectId,presence_sensor,70726573-656e-4636-955f-73656e736f72,rev?*%
%TF.SameCoordinates,Original*%
%TF.FileFunction,Soldermask,Bot*%
%TF.FilePolarity,Negative*%
%FSLAX46Y46*%
G04 Gerber Fmt 4.6, Leading zero omitted, Abs format (unit mm)*
G04 Created by KiCad (PCBNEW 6.0.2+dfsg-1) date 2023-09-26 22:36:55*
%MOMM*%
%LPD*%
G01*
G04 APERTURE LIST*
G04 Aperture macros list*
%AMRoundRect*
0 Rectangle with rounded corners*
0 $1 Rounding radius*
0 $2 $3 $4 $5 $6 $7 $8 $9 X,Y pos of 4 corners*
0 Add a 4 corners polygon primitive as box body*
4,1,4,$2,$3,$4,$5,$6,$7,$8,$9,$2,$3,0*
0 Add four circle primitives for the rounded corners*
1,1,$1+$1,$2,$3*
1,1,$1+$1,$4,$5*
1,1,$1+$1,$6,$7*
1,1,$1+$1,$8,$9*
0 Add four rect primitives between the rounded corners*
20,1,$1+$1,$2,$3,$4,$5,0*
20,1,$1+$1,$4,$5,$6,$7,0*
20,1,$1+$1,$6,$7,$8,$9,0*
20,1,$1+$1,$8,$9,$2,$3,0*%
G04 Aperture macros list end*
%ADD10C,2.200000*%
%ADD11R,1.700000X1.700000*%
%ADD12O,1.700000X1.700000*%
%ADD13R,3.500000X3.500000*%
%ADD14RoundRect,0.750000X-1.000000X0.750000X-1.000000X-0.750000X1.000000X-0.750000X1.000000X0.750000X0*%
%ADD15RoundRect,0.875000X-0.875000X0.875000X-0.875000X-0.875000X0.875000X-0.875000X0.875000X0.875000X0*%
%ADD16R,3.000000X3.000000*%
%ADD17C,3.000000*%
%ADD18R,1.600000X1.600000*%
%ADD19O,1.600000X1.600000*%
%ADD20C,1.600000*%
G04 APERTURE END LIST*
D10*
%TO.C,REF\u002A\u002A*%
X96000000Y-94000000D03*
%TD*%
%TO.C,REF\u002A\u002A*%
X54000000Y-94000000D03*
%TD*%
%TO.C,REF\u002A\u002A*%
X96000000Y-54000000D03*
%TD*%
%TO.C,REF\u002A\u002A*%
X54000000Y-54000000D03*
%TD*%
D11*
%TO.C,J40*%
X97860000Y-78810000D03*
D12*
X97860000Y-81350000D03*
%TD*%
D11*
%TO.C,J31*%
X97860000Y-71190000D03*
D12*
X97860000Y-73730000D03*
%TD*%
D13*
%TO.C,J50*%
X64840000Y-64109000D03*
D14*
X64840000Y-58109000D03*
D15*
X60140000Y-61109000D03*
%TD*%
D16*
%TO.C,J51*%
X54045000Y-61030000D03*
D17*
X54045000Y-66110000D03*
%TD*%
D11*
%TO.C,J30*%
X97860000Y-88335000D03*
%TD*%
%TO.C,J10*%
X52140000Y-73090000D03*
D12*
X52140000Y-75630000D03*
%TD*%
D11*
%TO.C,J2*%
X77555000Y-97860000D03*
D12*
X80095000Y-97860000D03*
X82635000Y-97860000D03*
%TD*%
D18*
%TO.C,D50*%
X80334000Y-60268000D03*
D19*
X90494000Y-60268000D03*
%TD*%
D18*
%TO.C,C50*%
X74365000Y-57717651D03*
D20*
X74365000Y-52717651D03*
%TD*%
D11*
%TO.C,J3*%
X67395000Y-97860000D03*
D12*
X69935000Y-97860000D03*
X72475000Y-97860000D03*
%TD*%
D11*
%TO.C,J1*%
X57220000Y-97860000D03*
D12*
X59760000Y-97860000D03*
X62300000Y-97860000D03*
%TD*%
%TO.C,J5*%
X52140000Y-88335000D03*
X52140000Y-85795000D03*
X52140000Y-83255000D03*
D11*
X52140000Y-80715000D03*
%TD*%
D19*
%TO.C,D40*%
X94050000Y-87065000D03*
D18*
X94050000Y-76905000D03*
%TD*%
%TO.C,U30*%
X86440000Y-71185000D03*
D19*
X86440000Y-73725000D03*
X94060000Y-73725000D03*
X94060000Y-71185000D03*
%TD*%
D11*
%TO.C,J4*%
X87700000Y-97860000D03*
D12*
X90240000Y-97860000D03*
X92780000Y-97860000D03*
%TD*%
D16*
%TO.C,J52*%
X95955000Y-61030000D03*
D17*
X95955000Y-66110000D03*
%TD*%
D11*
%TO.C,J6*%
X73984000Y-92780000D03*
D12*
X76524000Y-92780000D03*
%TD*%
M02*
