%TF.GenerationSoftware,KiCad,Pcbnew,6.0.2+dfsg-1*%
%TF.CreationDate,2023-09-26T22:36:54+02:00*%
%TF.ProjectId,presence_sensor,70726573-656e-4636-955f-73656e736f72,rev?*%
%TF.SameCoordinates,Original*%
%TF.FileFunction,Legend,Top*%
%TF.FilePolarity,Positive*%
%FSLAX46Y46*%
G04 Gerber Fmt 4.6, Leading zero omitted, Abs format (unit mm)*
G04 Created by KiCad (PCBNEW 6.0.2+dfsg-1) date 2023-09-26 22:36:54*
%MOMM*%
%LPD*%
G01*
G04 APERTURE LIST*
G04 Aperture macros list*
%AMRoundRect*
0 Rectangle with rounded corners*
0 $1 Rounding radius*
0 $2 $3 $4 $5 $6 $7 $8 $9 X,Y pos of 4 corners*
0 Add a 4 corners polygon primitive as box body*
4,1,4,$2,$3,$4,$5,$6,$7,$8,$9,$2,$3,0*
0 Add four circle primitives for the rounded corners*
1,1,$1+$1,$2,$3*
1,1,$1+$1,$4,$5*
1,1,$1+$1,$6,$7*
1,1,$1+$1,$8,$9*
0 Add four rect primitives between the rounded corners*
20,1,$1+$1,$2,$3,$4,$5,0*
20,1,$1+$1,$4,$5,$6,$7,0*
20,1,$1+$1,$6,$7,$8,$9,0*
20,1,$1+$1,$8,$9,$2,$3,0*%
G04 Aperture macros list end*
%ADD10C,0.150000*%
%ADD11C,0.120000*%
%ADD12C,2.200000*%
%ADD13RoundRect,0.150000X0.150000X-0.587500X0.150000X0.587500X-0.150000X0.587500X-0.150000X-0.587500X0*%
%ADD14R,1.500000X2.000000*%
%ADD15R,3.800000X2.000000*%
%ADD16R,1.700000X1.700000*%
%ADD17O,1.700000X1.700000*%
%ADD18R,3.500000X3.500000*%
%ADD19RoundRect,0.750000X-1.000000X0.750000X-1.000000X-0.750000X1.000000X-0.750000X1.000000X0.750000X0*%
%ADD20RoundRect,0.875000X-0.875000X0.875000X-0.875000X-0.875000X0.875000X-0.875000X0.875000X0.875000X0*%
%ADD21RoundRect,0.250001X-0.462499X-0.624999X0.462499X-0.624999X0.462499X0.624999X-0.462499X0.624999X0*%
%ADD22RoundRect,0.250000X-0.400000X-0.625000X0.400000X-0.625000X0.400000X0.625000X-0.400000X0.625000X0*%
%ADD23R,3.000000X3.000000*%
%ADD24C,3.000000*%
%ADD25RoundRect,0.250000X0.412500X0.650000X-0.412500X0.650000X-0.412500X-0.650000X0.412500X-0.650000X0*%
%ADD26RoundRect,0.250000X0.400000X0.625000X-0.400000X0.625000X-0.400000X-0.625000X0.400000X-0.625000X0*%
%ADD27R,1.600000X1.600000*%
%ADD28O,1.600000X1.600000*%
%ADD29RoundRect,0.250000X-0.650000X0.412500X-0.650000X-0.412500X0.650000X-0.412500X0.650000X0.412500X0*%
%ADD30C,1.600000*%
%ADD31C,1.000000*%
%ADD32RoundRect,0.250001X0.462499X0.624999X-0.462499X0.624999X-0.462499X-0.624999X0.462499X-0.624999X0*%
%ADD33RoundRect,0.150000X0.150000X-0.825000X0.150000X0.825000X-0.150000X0.825000X-0.150000X-0.825000X0*%
%ADD34RoundRect,0.250000X0.650000X-0.412500X0.650000X0.412500X-0.650000X0.412500X-0.650000X-0.412500X0*%
G04 APERTURE END LIST*
D10*
X95447047Y-81421428D02*
X96208952Y-81421428D01*
X95447047Y-78627428D02*
X96208952Y-78627428D01*
X95828000Y-79008380D02*
X95828000Y-78246476D01*
X95613714Y-73658571D02*
X95947047Y-73658571D01*
X96089904Y-74182380D02*
X95613714Y-74182380D01*
X95613714Y-73182380D01*
X96089904Y-73182380D01*
X96137523Y-71293142D02*
X96089904Y-71340761D01*
X95947047Y-71388380D01*
X95851809Y-71388380D01*
X95708952Y-71340761D01*
X95613714Y-71245523D01*
X95566095Y-71150285D01*
X95518476Y-70959809D01*
X95518476Y-70816952D01*
X95566095Y-70626476D01*
X95613714Y-70531238D01*
X95708952Y-70436000D01*
X95851809Y-70388380D01*
X95947047Y-70388380D01*
X96089904Y-70436000D01*
X96137523Y-70483619D01*
X81023809Y-53647380D02*
X81023809Y-52647380D01*
X81404761Y-52647380D01*
X81500000Y-52695000D01*
X81547619Y-52742619D01*
X81595238Y-52837857D01*
X81595238Y-52980714D01*
X81547619Y-53075952D01*
X81500000Y-53123571D01*
X81404761Y-53171190D01*
X81023809Y-53171190D01*
X82023809Y-53647380D02*
X82023809Y-52980714D01*
X82023809Y-53171190D02*
X82071428Y-53075952D01*
X82119047Y-53028333D01*
X82214285Y-52980714D01*
X82309523Y-52980714D01*
X83023809Y-53599761D02*
X82928571Y-53647380D01*
X82738095Y-53647380D01*
X82642857Y-53599761D01*
X82595238Y-53504523D01*
X82595238Y-53123571D01*
X82642857Y-53028333D01*
X82738095Y-52980714D01*
X82928571Y-52980714D01*
X83023809Y-53028333D01*
X83071428Y-53123571D01*
X83071428Y-53218809D01*
X82595238Y-53314047D01*
X83452380Y-53599761D02*
X83547619Y-53647380D01*
X83738095Y-53647380D01*
X83833333Y-53599761D01*
X83880952Y-53504523D01*
X83880952Y-53456904D01*
X83833333Y-53361666D01*
X83738095Y-53314047D01*
X83595238Y-53314047D01*
X83500000Y-53266428D01*
X83452380Y-53171190D01*
X83452380Y-53123571D01*
X83500000Y-53028333D01*
X83595238Y-52980714D01*
X83738095Y-52980714D01*
X83833333Y-53028333D01*
X84690476Y-53599761D02*
X84595238Y-53647380D01*
X84404761Y-53647380D01*
X84309523Y-53599761D01*
X84261904Y-53504523D01*
X84261904Y-53123571D01*
X84309523Y-53028333D01*
X84404761Y-52980714D01*
X84595238Y-52980714D01*
X84690476Y-53028333D01*
X84738095Y-53123571D01*
X84738095Y-53218809D01*
X84261904Y-53314047D01*
X85166666Y-52980714D02*
X85166666Y-53647380D01*
X85166666Y-53075952D02*
X85214285Y-53028333D01*
X85309523Y-52980714D01*
X85452380Y-52980714D01*
X85547619Y-53028333D01*
X85595238Y-53123571D01*
X85595238Y-53647380D01*
X86500000Y-53599761D02*
X86404761Y-53647380D01*
X86214285Y-53647380D01*
X86119047Y-53599761D01*
X86071428Y-53552142D01*
X86023809Y-53456904D01*
X86023809Y-53171190D01*
X86071428Y-53075952D01*
X86119047Y-53028333D01*
X86214285Y-52980714D01*
X86404761Y-52980714D01*
X86500000Y-53028333D01*
X87309523Y-53599761D02*
X87214285Y-53647380D01*
X87023809Y-53647380D01*
X86928571Y-53599761D01*
X86880952Y-53504523D01*
X86880952Y-53123571D01*
X86928571Y-53028333D01*
X87023809Y-52980714D01*
X87214285Y-52980714D01*
X87309523Y-53028333D01*
X87357142Y-53123571D01*
X87357142Y-53218809D01*
X86880952Y-53314047D01*
X88500000Y-53599761D02*
X88595238Y-53647380D01*
X88785714Y-53647380D01*
X88880952Y-53599761D01*
X88928571Y-53504523D01*
X88928571Y-53456904D01*
X88880952Y-53361666D01*
X88785714Y-53314047D01*
X88642857Y-53314047D01*
X88547619Y-53266428D01*
X88500000Y-53171190D01*
X88500000Y-53123571D01*
X88547619Y-53028333D01*
X88642857Y-52980714D01*
X88785714Y-52980714D01*
X88880952Y-53028333D01*
X89738095Y-53599761D02*
X89642857Y-53647380D01*
X89452380Y-53647380D01*
X89357142Y-53599761D01*
X89309523Y-53504523D01*
X89309523Y-53123571D01*
X89357142Y-53028333D01*
X89452380Y-52980714D01*
X89642857Y-52980714D01*
X89738095Y-53028333D01*
X89785714Y-53123571D01*
X89785714Y-53218809D01*
X89309523Y-53314047D01*
X90214285Y-52980714D02*
X90214285Y-53647380D01*
X90214285Y-53075952D02*
X90261904Y-53028333D01*
X90357142Y-52980714D01*
X90500000Y-52980714D01*
X90595238Y-53028333D01*
X90642857Y-53123571D01*
X90642857Y-53647380D01*
X91071428Y-53599761D02*
X91166666Y-53647380D01*
X91357142Y-53647380D01*
X91452380Y-53599761D01*
X91500000Y-53504523D01*
X91500000Y-53456904D01*
X91452380Y-53361666D01*
X91357142Y-53314047D01*
X91214285Y-53314047D01*
X91119047Y-53266428D01*
X91071428Y-53171190D01*
X91071428Y-53123571D01*
X91119047Y-53028333D01*
X91214285Y-52980714D01*
X91357142Y-52980714D01*
X91452380Y-53028333D01*
X92071428Y-53647380D02*
X91976190Y-53599761D01*
X91928571Y-53552142D01*
X91880952Y-53456904D01*
X91880952Y-53171190D01*
X91928571Y-53075952D01*
X91976190Y-53028333D01*
X92071428Y-52980714D01*
X92214285Y-52980714D01*
X92309523Y-53028333D01*
X92357142Y-53075952D01*
X92404761Y-53171190D01*
X92404761Y-53456904D01*
X92357142Y-53552142D01*
X92309523Y-53599761D01*
X92214285Y-53647380D01*
X92071428Y-53647380D01*
X92833333Y-53647380D02*
X92833333Y-52980714D01*
X92833333Y-53171190D02*
X92880952Y-53075952D01*
X92928571Y-53028333D01*
X93023809Y-52980714D01*
X93119047Y-52980714D01*
X81309523Y-54590714D02*
X81547619Y-55257380D01*
X81785714Y-54590714D01*
X82690476Y-55257380D02*
X82119047Y-55257380D01*
X82404761Y-55257380D02*
X82404761Y-54257380D01*
X82309523Y-54400238D01*
X82214285Y-54495476D01*
X82119047Y-54543095D01*
X83119047Y-55162142D02*
X83166666Y-55209761D01*
X83119047Y-55257380D01*
X83071428Y-55209761D01*
X83119047Y-55162142D01*
X83119047Y-55257380D01*
X83785714Y-54257380D02*
X83880952Y-54257380D01*
X83976190Y-54305000D01*
X84023809Y-54352619D01*
X84071428Y-54447857D01*
X84119047Y-54638333D01*
X84119047Y-54876428D01*
X84071428Y-55066904D01*
X84023809Y-55162142D01*
X83976190Y-55209761D01*
X83880952Y-55257380D01*
X83785714Y-55257380D01*
X83690476Y-55209761D01*
X83642857Y-55162142D01*
X83595238Y-55066904D01*
X83547619Y-54876428D01*
X83547619Y-54638333D01*
X83595238Y-54447857D01*
X83642857Y-54352619D01*
X83690476Y-54305000D01*
X83785714Y-54257380D01*
X85261904Y-55209761D02*
X85404761Y-55257380D01*
X85642857Y-55257380D01*
X85738095Y-55209761D01*
X85785714Y-55162142D01*
X85833333Y-55066904D01*
X85833333Y-54971666D01*
X85785714Y-54876428D01*
X85738095Y-54828809D01*
X85642857Y-54781190D01*
X85452380Y-54733571D01*
X85357142Y-54685952D01*
X85309523Y-54638333D01*
X85261904Y-54543095D01*
X85261904Y-54447857D01*
X85309523Y-54352619D01*
X85357142Y-54305000D01*
X85452380Y-54257380D01*
X85690476Y-54257380D01*
X85833333Y-54305000D01*
X86642857Y-55209761D02*
X86547619Y-55257380D01*
X86357142Y-55257380D01*
X86261904Y-55209761D01*
X86214285Y-55114523D01*
X86214285Y-54733571D01*
X86261904Y-54638333D01*
X86357142Y-54590714D01*
X86547619Y-54590714D01*
X86642857Y-54638333D01*
X86690476Y-54733571D01*
X86690476Y-54828809D01*
X86214285Y-54924047D01*
X87119047Y-54590714D02*
X87119047Y-55590714D01*
X87119047Y-54638333D02*
X87214285Y-54590714D01*
X87404761Y-54590714D01*
X87500000Y-54638333D01*
X87547619Y-54685952D01*
X87595238Y-54781190D01*
X87595238Y-55066904D01*
X87547619Y-55162142D01*
X87500000Y-55209761D01*
X87404761Y-55257380D01*
X87214285Y-55257380D01*
X87119047Y-55209761D01*
X88023809Y-55162142D02*
X88071428Y-55209761D01*
X88023809Y-55257380D01*
X87976190Y-55209761D01*
X88023809Y-55162142D01*
X88023809Y-55257380D01*
X89214285Y-54352619D02*
X89261904Y-54305000D01*
X89357142Y-54257380D01*
X89595238Y-54257380D01*
X89690476Y-54305000D01*
X89738095Y-54352619D01*
X89785714Y-54447857D01*
X89785714Y-54543095D01*
X89738095Y-54685952D01*
X89166666Y-55257380D01*
X89785714Y-55257380D01*
X90404761Y-54257380D02*
X90500000Y-54257380D01*
X90595238Y-54305000D01*
X90642857Y-54352619D01*
X90690476Y-54447857D01*
X90738095Y-54638333D01*
X90738095Y-54876428D01*
X90690476Y-55066904D01*
X90642857Y-55162142D01*
X90595238Y-55209761D01*
X90500000Y-55257380D01*
X90404761Y-55257380D01*
X90309523Y-55209761D01*
X90261904Y-55162142D01*
X90214285Y-55066904D01*
X90166666Y-54876428D01*
X90166666Y-54638333D01*
X90214285Y-54447857D01*
X90261904Y-54352619D01*
X90309523Y-54305000D01*
X90404761Y-54257380D01*
X91119047Y-54352619D02*
X91166666Y-54305000D01*
X91261904Y-54257380D01*
X91500000Y-54257380D01*
X91595238Y-54305000D01*
X91642857Y-54352619D01*
X91690476Y-54447857D01*
X91690476Y-54543095D01*
X91642857Y-54685952D01*
X91071428Y-55257380D01*
X91690476Y-55257380D01*
X92023809Y-54257380D02*
X92642857Y-54257380D01*
X92309523Y-54638333D01*
X92452380Y-54638333D01*
X92547619Y-54685952D01*
X92595238Y-54733571D01*
X92642857Y-54828809D01*
X92642857Y-55066904D01*
X92595238Y-55162142D01*
X92547619Y-55209761D01*
X92452380Y-55257380D01*
X92166666Y-55257380D01*
X92071428Y-55209761D01*
X92023809Y-55162142D01*
X98000000Y-66761904D02*
X97952380Y-66857142D01*
X97952380Y-67000000D01*
X98000000Y-67142857D01*
X98095238Y-67238095D01*
X98190476Y-67285714D01*
X98380952Y-67333333D01*
X98523809Y-67333333D01*
X98714285Y-67285714D01*
X98809523Y-67238095D01*
X98904761Y-67142857D01*
X98952380Y-67000000D01*
X98952380Y-66904761D01*
X98904761Y-66761904D01*
X98857142Y-66714285D01*
X98523809Y-66714285D01*
X98523809Y-66904761D01*
X98952380Y-66285714D02*
X97952380Y-66285714D01*
X98952380Y-65714285D01*
X97952380Y-65714285D01*
X98952380Y-65238095D02*
X97952380Y-65238095D01*
X97952380Y-65000000D01*
X98000000Y-64857142D01*
X98095238Y-64761904D01*
X98190476Y-64714285D01*
X98380952Y-64666666D01*
X98523809Y-64666666D01*
X98714285Y-64714285D01*
X98809523Y-64761904D01*
X98904761Y-64857142D01*
X98952380Y-65000000D01*
X98952380Y-65238095D01*
X53238095Y-69000000D02*
X53142857Y-68952380D01*
X53000000Y-68952380D01*
X52857142Y-69000000D01*
X52761904Y-69095238D01*
X52714285Y-69190476D01*
X52666666Y-69380952D01*
X52666666Y-69523809D01*
X52714285Y-69714285D01*
X52761904Y-69809523D01*
X52857142Y-69904761D01*
X53000000Y-69952380D01*
X53095238Y-69952380D01*
X53238095Y-69904761D01*
X53285714Y-69857142D01*
X53285714Y-69523809D01*
X53095238Y-69523809D01*
X53714285Y-69952380D02*
X53714285Y-68952380D01*
X54285714Y-69952380D01*
X54285714Y-68952380D01*
X54761904Y-69952380D02*
X54761904Y-68952380D01*
X55000000Y-68952380D01*
X55142857Y-69000000D01*
X55238095Y-69095238D01*
X55285714Y-69190476D01*
X55333333Y-69380952D01*
X55333333Y-69523809D01*
X55285714Y-69714285D01*
X55238095Y-69809523D01*
X55142857Y-69904761D01*
X55000000Y-69952380D01*
X54761904Y-69952380D01*
X53380952Y-57952380D02*
X52809523Y-57952380D01*
X53095238Y-57952380D02*
X53095238Y-56952380D01*
X53000000Y-57095238D01*
X52904761Y-57190476D01*
X52809523Y-57238095D01*
X53761904Y-57047619D02*
X53809523Y-57000000D01*
X53904761Y-56952380D01*
X54142857Y-56952380D01*
X54238095Y-57000000D01*
X54285714Y-57047619D01*
X54333333Y-57142857D01*
X54333333Y-57238095D01*
X54285714Y-57380952D01*
X53714285Y-57952380D01*
X54333333Y-57952380D01*
X54619047Y-56952380D02*
X54952380Y-57952380D01*
X55285714Y-56952380D01*
X95380952Y-57952380D02*
X94809523Y-57952380D01*
X95095238Y-57952380D02*
X95095238Y-56952380D01*
X95000000Y-57095238D01*
X94904761Y-57190476D01*
X94809523Y-57238095D01*
X95761904Y-57047619D02*
X95809523Y-57000000D01*
X95904761Y-56952380D01*
X96142857Y-56952380D01*
X96238095Y-57000000D01*
X96285714Y-57047619D01*
X96333333Y-57142857D01*
X96333333Y-57238095D01*
X96285714Y-57380952D01*
X95714285Y-57952380D01*
X96333333Y-57952380D01*
X96619047Y-56952380D02*
X96952380Y-57952380D01*
X97285714Y-56952380D01*
%TO.C,Q40*%
X89033571Y-85961619D02*
X88938333Y-85914000D01*
X88843095Y-85818761D01*
X88700238Y-85675904D01*
X88605000Y-85628285D01*
X88509761Y-85628285D01*
X88557380Y-85866380D02*
X88462142Y-85818761D01*
X88366904Y-85723523D01*
X88319285Y-85533047D01*
X88319285Y-85199714D01*
X88366904Y-85009238D01*
X88462142Y-84914000D01*
X88557380Y-84866380D01*
X88747857Y-84866380D01*
X88843095Y-84914000D01*
X88938333Y-85009238D01*
X88985952Y-85199714D01*
X88985952Y-85533047D01*
X88938333Y-85723523D01*
X88843095Y-85818761D01*
X88747857Y-85866380D01*
X88557380Y-85866380D01*
X89843095Y-85199714D02*
X89843095Y-85866380D01*
X89605000Y-84818761D02*
X89366904Y-85533047D01*
X89985952Y-85533047D01*
X90557380Y-84866380D02*
X90652619Y-84866380D01*
X90747857Y-84914000D01*
X90795476Y-84961619D01*
X90843095Y-85056857D01*
X90890714Y-85247333D01*
X90890714Y-85485428D01*
X90843095Y-85675904D01*
X90795476Y-85771142D01*
X90747857Y-85818761D01*
X90652619Y-85866380D01*
X90557380Y-85866380D01*
X90462142Y-85818761D01*
X90414523Y-85771142D01*
X90366904Y-85675904D01*
X90319285Y-85485428D01*
X90319285Y-85247333D01*
X90366904Y-85056857D01*
X90414523Y-84961619D01*
X90462142Y-84914000D01*
X90557380Y-84866380D01*
%TO.C,U50*%
X75666904Y-62387380D02*
X75666904Y-63196904D01*
X75714523Y-63292142D01*
X75762142Y-63339761D01*
X75857380Y-63387380D01*
X76047857Y-63387380D01*
X76143095Y-63339761D01*
X76190714Y-63292142D01*
X76238333Y-63196904D01*
X76238333Y-62387380D01*
X77190714Y-62387380D02*
X76714523Y-62387380D01*
X76666904Y-62863571D01*
X76714523Y-62815952D01*
X76809761Y-62768333D01*
X77047857Y-62768333D01*
X77143095Y-62815952D01*
X77190714Y-62863571D01*
X77238333Y-62958809D01*
X77238333Y-63196904D01*
X77190714Y-63292142D01*
X77143095Y-63339761D01*
X77047857Y-63387380D01*
X76809761Y-63387380D01*
X76714523Y-63339761D01*
X76666904Y-63292142D01*
X77857380Y-62387380D02*
X77952619Y-62387380D01*
X78047857Y-62435000D01*
X78095476Y-62482619D01*
X78143095Y-62577857D01*
X78190714Y-62768333D01*
X78190714Y-63006428D01*
X78143095Y-63196904D01*
X78095476Y-63292142D01*
X78047857Y-63339761D01*
X77952619Y-63387380D01*
X77857380Y-63387380D01*
X77762142Y-63339761D01*
X77714523Y-63292142D01*
X77666904Y-63196904D01*
X77619285Y-63006428D01*
X77619285Y-62768333D01*
X77666904Y-62577857D01*
X77714523Y-62482619D01*
X77762142Y-62435000D01*
X77857380Y-62387380D01*
%TO.C,J40*%
X96717142Y-84132380D02*
X96240952Y-84132380D01*
X96240952Y-83132380D01*
X97240952Y-83132380D02*
X97431428Y-83132380D01*
X97526666Y-83180000D01*
X97621904Y-83275238D01*
X97669523Y-83465714D01*
X97669523Y-83799047D01*
X97621904Y-83989523D01*
X97526666Y-84084761D01*
X97431428Y-84132380D01*
X97240952Y-84132380D01*
X97145714Y-84084761D01*
X97050476Y-83989523D01*
X97002857Y-83799047D01*
X97002857Y-83465714D01*
X97050476Y-83275238D01*
X97145714Y-83180000D01*
X97240952Y-83132380D01*
X98050476Y-83846666D02*
X98526666Y-83846666D01*
X97955238Y-84132380D02*
X98288571Y-83132380D01*
X98621904Y-84132380D01*
X98955238Y-84132380D02*
X98955238Y-83132380D01*
X99193333Y-83132380D01*
X99336190Y-83180000D01*
X99431428Y-83275238D01*
X99479047Y-83370476D01*
X99526666Y-83560952D01*
X99526666Y-83703809D01*
X99479047Y-83894285D01*
X99431428Y-83989523D01*
X99336190Y-84084761D01*
X99193333Y-84132380D01*
X98955238Y-84132380D01*
%TO.C,J31*%
X96360000Y-75468380D02*
X96550476Y-75468380D01*
X96645714Y-75516000D01*
X96740952Y-75611238D01*
X96788571Y-75801714D01*
X96788571Y-76135047D01*
X96740952Y-76325523D01*
X96645714Y-76420761D01*
X96550476Y-76468380D01*
X96360000Y-76468380D01*
X96264761Y-76420761D01*
X96169523Y-76325523D01*
X96121904Y-76135047D01*
X96121904Y-75801714D01*
X96169523Y-75611238D01*
X96264761Y-75516000D01*
X96360000Y-75468380D01*
X97217142Y-76468380D02*
X97217142Y-75468380D01*
X97598095Y-75468380D01*
X97693333Y-75516000D01*
X97740952Y-75563619D01*
X97788571Y-75658857D01*
X97788571Y-75801714D01*
X97740952Y-75896952D01*
X97693333Y-75944571D01*
X97598095Y-75992190D01*
X97217142Y-75992190D01*
X98074285Y-75468380D02*
X98645714Y-75468380D01*
X98360000Y-76468380D02*
X98360000Y-75468380D01*
X99169523Y-75468380D02*
X99360000Y-75468380D01*
X99455238Y-75516000D01*
X99550476Y-75611238D01*
X99598095Y-75801714D01*
X99598095Y-76135047D01*
X99550476Y-76325523D01*
X99455238Y-76420761D01*
X99360000Y-76468380D01*
X99169523Y-76468380D01*
X99074285Y-76420761D01*
X98979047Y-76325523D01*
X98931428Y-76135047D01*
X98931428Y-75801714D01*
X98979047Y-75611238D01*
X99074285Y-75516000D01*
X99169523Y-75468380D01*
%TO.C,D10*%
X72515714Y-75452380D02*
X72515714Y-74452380D01*
X72753809Y-74452380D01*
X72896666Y-74500000D01*
X72991904Y-74595238D01*
X73039523Y-74690476D01*
X73087142Y-74880952D01*
X73087142Y-75023809D01*
X73039523Y-75214285D01*
X72991904Y-75309523D01*
X72896666Y-75404761D01*
X72753809Y-75452380D01*
X72515714Y-75452380D01*
X74039523Y-75452380D02*
X73468095Y-75452380D01*
X73753809Y-75452380D02*
X73753809Y-74452380D01*
X73658571Y-74595238D01*
X73563333Y-74690476D01*
X73468095Y-74738095D01*
X74658571Y-74452380D02*
X74753809Y-74452380D01*
X74849047Y-74500000D01*
X74896666Y-74547619D01*
X74944285Y-74642857D01*
X74991904Y-74833333D01*
X74991904Y-75071428D01*
X74944285Y-75261904D01*
X74896666Y-75357142D01*
X74849047Y-75404761D01*
X74753809Y-75452380D01*
X74658571Y-75452380D01*
X74563333Y-75404761D01*
X74515714Y-75357142D01*
X74468095Y-75261904D01*
X74420476Y-75071428D01*
X74420476Y-74833333D01*
X74468095Y-74642857D01*
X74515714Y-74547619D01*
X74563333Y-74500000D01*
X74658571Y-74452380D01*
%TO.C,R20*%
X73087142Y-87517380D02*
X72753809Y-87041190D01*
X72515714Y-87517380D02*
X72515714Y-86517380D01*
X72896666Y-86517380D01*
X72991904Y-86565000D01*
X73039523Y-86612619D01*
X73087142Y-86707857D01*
X73087142Y-86850714D01*
X73039523Y-86945952D01*
X72991904Y-86993571D01*
X72896666Y-87041190D01*
X72515714Y-87041190D01*
X73468095Y-86612619D02*
X73515714Y-86565000D01*
X73610952Y-86517380D01*
X73849047Y-86517380D01*
X73944285Y-86565000D01*
X73991904Y-86612619D01*
X74039523Y-86707857D01*
X74039523Y-86803095D01*
X73991904Y-86945952D01*
X73420476Y-87517380D01*
X74039523Y-87517380D01*
X74658571Y-86517380D02*
X74753809Y-86517380D01*
X74849047Y-86565000D01*
X74896666Y-86612619D01*
X74944285Y-86707857D01*
X74991904Y-86898333D01*
X74991904Y-87136428D01*
X74944285Y-87326904D01*
X74896666Y-87422142D01*
X74849047Y-87469761D01*
X74753809Y-87517380D01*
X74658571Y-87517380D01*
X74563333Y-87469761D01*
X74515714Y-87422142D01*
X74468095Y-87326904D01*
X74420476Y-87136428D01*
X74420476Y-86898333D01*
X74468095Y-86707857D01*
X74515714Y-86612619D01*
X74563333Y-86565000D01*
X74658571Y-86517380D01*
%TO.C,R21*%
X79437142Y-91327380D02*
X79103809Y-90851190D01*
X78865714Y-91327380D02*
X78865714Y-90327380D01*
X79246666Y-90327380D01*
X79341904Y-90375000D01*
X79389523Y-90422619D01*
X79437142Y-90517857D01*
X79437142Y-90660714D01*
X79389523Y-90755952D01*
X79341904Y-90803571D01*
X79246666Y-90851190D01*
X78865714Y-90851190D01*
X79818095Y-90422619D02*
X79865714Y-90375000D01*
X79960952Y-90327380D01*
X80199047Y-90327380D01*
X80294285Y-90375000D01*
X80341904Y-90422619D01*
X80389523Y-90517857D01*
X80389523Y-90613095D01*
X80341904Y-90755952D01*
X79770476Y-91327380D01*
X80389523Y-91327380D01*
X81341904Y-91327380D02*
X80770476Y-91327380D01*
X81056190Y-91327380D02*
X81056190Y-90327380D01*
X80960952Y-90470238D01*
X80865714Y-90565476D01*
X80770476Y-90613095D01*
%TO.C,J30*%
X95153571Y-91327380D02*
X95153571Y-90327380D01*
X95391666Y-90327380D01*
X95534523Y-90375000D01*
X95629761Y-90470238D01*
X95677380Y-90565476D01*
X95725000Y-90755952D01*
X95725000Y-90898809D01*
X95677380Y-91089285D01*
X95629761Y-91184523D01*
X95534523Y-91279761D01*
X95391666Y-91327380D01*
X95153571Y-91327380D01*
X95915476Y-91422619D02*
X96677380Y-91422619D01*
X97105952Y-90327380D02*
X97296428Y-90327380D01*
X97391666Y-90375000D01*
X97486904Y-90470238D01*
X97534523Y-90660714D01*
X97534523Y-90994047D01*
X97486904Y-91184523D01*
X97391666Y-91279761D01*
X97296428Y-91327380D01*
X97105952Y-91327380D01*
X97010714Y-91279761D01*
X96915476Y-91184523D01*
X96867857Y-90994047D01*
X96867857Y-90660714D01*
X96915476Y-90470238D01*
X97010714Y-90375000D01*
X97105952Y-90327380D01*
X97963095Y-90327380D02*
X97963095Y-91136904D01*
X98010714Y-91232142D01*
X98058333Y-91279761D01*
X98153571Y-91327380D01*
X98344047Y-91327380D01*
X98439285Y-91279761D01*
X98486904Y-91232142D01*
X98534523Y-91136904D01*
X98534523Y-90327380D01*
X98867857Y-90327380D02*
X99439285Y-90327380D01*
X99153571Y-91327380D02*
X99153571Y-90327380D01*
%TO.C,C1*%
X57688333Y-78532142D02*
X57640714Y-78579761D01*
X57497857Y-78627380D01*
X57402619Y-78627380D01*
X57259761Y-78579761D01*
X57164523Y-78484523D01*
X57116904Y-78389285D01*
X57069285Y-78198809D01*
X57069285Y-78055952D01*
X57116904Y-77865476D01*
X57164523Y-77770238D01*
X57259761Y-77675000D01*
X57402619Y-77627380D01*
X57497857Y-77627380D01*
X57640714Y-77675000D01*
X57688333Y-77722619D01*
X58640714Y-78627380D02*
X58069285Y-78627380D01*
X58355000Y-78627380D02*
X58355000Y-77627380D01*
X58259761Y-77770238D01*
X58164523Y-77865476D01*
X58069285Y-77913095D01*
%TO.C,J10*%
X55084761Y-76860000D02*
X55132380Y-76717142D01*
X55132380Y-76479047D01*
X55084761Y-76383809D01*
X55037142Y-76336190D01*
X54941904Y-76288571D01*
X54846666Y-76288571D01*
X54751428Y-76336190D01*
X54703809Y-76383809D01*
X54656190Y-76479047D01*
X54608571Y-76669523D01*
X54560952Y-76764761D01*
X54513333Y-76812380D01*
X54418095Y-76860000D01*
X54322857Y-76860000D01*
X54227619Y-76812380D01*
X54180000Y-76764761D01*
X54132380Y-76669523D01*
X54132380Y-76431428D01*
X54180000Y-76288571D01*
X54132380Y-75955238D02*
X55132380Y-75717142D01*
X54418095Y-75526666D01*
X55132380Y-75336190D01*
X54132380Y-75098095D01*
X55132380Y-74717142D02*
X54132380Y-74717142D01*
X54132380Y-74383809D02*
X54132380Y-73812380D01*
X55132380Y-74098095D02*
X54132380Y-74098095D01*
X55037142Y-72907619D02*
X55084761Y-72955238D01*
X55132380Y-73098095D01*
X55132380Y-73193333D01*
X55084761Y-73336190D01*
X54989523Y-73431428D01*
X54894285Y-73479047D01*
X54703809Y-73526666D01*
X54560952Y-73526666D01*
X54370476Y-73479047D01*
X54275238Y-73431428D01*
X54180000Y-73336190D01*
X54132380Y-73193333D01*
X54132380Y-73098095D01*
X54180000Y-72955238D01*
X54227619Y-72907619D01*
X55132380Y-72479047D02*
X54132380Y-72479047D01*
X54608571Y-72479047D02*
X54608571Y-71907619D01*
X55132380Y-71907619D02*
X54132380Y-71907619D01*
%TO.C,J2*%
X77904523Y-95724761D02*
X78047380Y-95772380D01*
X78285476Y-95772380D01*
X78380714Y-95724761D01*
X78428333Y-95677142D01*
X78475952Y-95581904D01*
X78475952Y-95486666D01*
X78428333Y-95391428D01*
X78380714Y-95343809D01*
X78285476Y-95296190D01*
X78095000Y-95248571D01*
X77999761Y-95200952D01*
X77952142Y-95153333D01*
X77904523Y-95058095D01*
X77904523Y-94962857D01*
X77952142Y-94867619D01*
X77999761Y-94820000D01*
X78095000Y-94772380D01*
X78333095Y-94772380D01*
X78475952Y-94820000D01*
X79428333Y-94820000D02*
X79333095Y-94772380D01*
X79190238Y-94772380D01*
X79047380Y-94820000D01*
X78952142Y-94915238D01*
X78904523Y-95010476D01*
X78856904Y-95200952D01*
X78856904Y-95343809D01*
X78904523Y-95534285D01*
X78952142Y-95629523D01*
X79047380Y-95724761D01*
X79190238Y-95772380D01*
X79285476Y-95772380D01*
X79428333Y-95724761D01*
X79475952Y-95677142D01*
X79475952Y-95343809D01*
X79285476Y-95343809D01*
X79666428Y-95867619D02*
X80428333Y-95867619D01*
X80666428Y-94772380D02*
X80666428Y-95581904D01*
X80714047Y-95677142D01*
X80761666Y-95724761D01*
X80856904Y-95772380D01*
X81047380Y-95772380D01*
X81142619Y-95724761D01*
X81190238Y-95677142D01*
X81237857Y-95581904D01*
X81237857Y-94772380D01*
X82285476Y-95772380D02*
X81952142Y-95296190D01*
X81714047Y-95772380D02*
X81714047Y-94772380D01*
X82095000Y-94772380D01*
X82190238Y-94820000D01*
X82237857Y-94867619D01*
X82285476Y-94962857D01*
X82285476Y-95105714D01*
X82237857Y-95200952D01*
X82190238Y-95248571D01*
X82095000Y-95296190D01*
X81714047Y-95296190D01*
%TO.C,R4*%
X67213333Y-94883380D02*
X66880000Y-94407190D01*
X66641904Y-94883380D02*
X66641904Y-93883380D01*
X67022857Y-93883380D01*
X67118095Y-93931000D01*
X67165714Y-93978619D01*
X67213333Y-94073857D01*
X67213333Y-94216714D01*
X67165714Y-94311952D01*
X67118095Y-94359571D01*
X67022857Y-94407190D01*
X66641904Y-94407190D01*
X68070476Y-94216714D02*
X68070476Y-94883380D01*
X67832380Y-93835761D02*
X67594285Y-94550047D01*
X68213333Y-94550047D01*
%TO.C,R30*%
X84771142Y-80024380D02*
X84437809Y-79548190D01*
X84199714Y-80024380D02*
X84199714Y-79024380D01*
X84580666Y-79024380D01*
X84675904Y-79072000D01*
X84723523Y-79119619D01*
X84771142Y-79214857D01*
X84771142Y-79357714D01*
X84723523Y-79452952D01*
X84675904Y-79500571D01*
X84580666Y-79548190D01*
X84199714Y-79548190D01*
X85104476Y-79024380D02*
X85723523Y-79024380D01*
X85390190Y-79405333D01*
X85533047Y-79405333D01*
X85628285Y-79452952D01*
X85675904Y-79500571D01*
X85723523Y-79595809D01*
X85723523Y-79833904D01*
X85675904Y-79929142D01*
X85628285Y-79976761D01*
X85533047Y-80024380D01*
X85247333Y-80024380D01*
X85152095Y-79976761D01*
X85104476Y-79929142D01*
X86342571Y-79024380D02*
X86437809Y-79024380D01*
X86533047Y-79072000D01*
X86580666Y-79119619D01*
X86628285Y-79214857D01*
X86675904Y-79405333D01*
X86675904Y-79643428D01*
X86628285Y-79833904D01*
X86580666Y-79929142D01*
X86533047Y-79976761D01*
X86437809Y-80024380D01*
X86342571Y-80024380D01*
X86247333Y-79976761D01*
X86199714Y-79929142D01*
X86152095Y-79833904D01*
X86104476Y-79643428D01*
X86104476Y-79405333D01*
X86152095Y-79214857D01*
X86199714Y-79119619D01*
X86247333Y-79072000D01*
X86342571Y-79024380D01*
%TO.C,R3*%
X61625333Y-94883380D02*
X61292000Y-94407190D01*
X61053904Y-94883380D02*
X61053904Y-93883380D01*
X61434857Y-93883380D01*
X61530095Y-93931000D01*
X61577714Y-93978619D01*
X61625333Y-94073857D01*
X61625333Y-94216714D01*
X61577714Y-94311952D01*
X61530095Y-94359571D01*
X61434857Y-94407190D01*
X61053904Y-94407190D01*
X61958666Y-93883380D02*
X62577714Y-93883380D01*
X62244380Y-94264333D01*
X62387238Y-94264333D01*
X62482476Y-94311952D01*
X62530095Y-94359571D01*
X62577714Y-94454809D01*
X62577714Y-94692904D01*
X62530095Y-94788142D01*
X62482476Y-94835761D01*
X62387238Y-94883380D01*
X62101523Y-94883380D01*
X62006285Y-94835761D01*
X61958666Y-94788142D01*
%TO.C,D50*%
X84199714Y-58600380D02*
X84199714Y-57600380D01*
X84437809Y-57600380D01*
X84580666Y-57648000D01*
X84675904Y-57743238D01*
X84723523Y-57838476D01*
X84771142Y-58028952D01*
X84771142Y-58171809D01*
X84723523Y-58362285D01*
X84675904Y-58457523D01*
X84580666Y-58552761D01*
X84437809Y-58600380D01*
X84199714Y-58600380D01*
X85675904Y-57600380D02*
X85199714Y-57600380D01*
X85152095Y-58076571D01*
X85199714Y-58028952D01*
X85294952Y-57981333D01*
X85533047Y-57981333D01*
X85628285Y-58028952D01*
X85675904Y-58076571D01*
X85723523Y-58171809D01*
X85723523Y-58409904D01*
X85675904Y-58505142D01*
X85628285Y-58552761D01*
X85533047Y-58600380D01*
X85294952Y-58600380D01*
X85199714Y-58552761D01*
X85152095Y-58505142D01*
X86342571Y-57600380D02*
X86437809Y-57600380D01*
X86533047Y-57648000D01*
X86580666Y-57695619D01*
X86628285Y-57790857D01*
X86675904Y-57981333D01*
X86675904Y-58219428D01*
X86628285Y-58409904D01*
X86580666Y-58505142D01*
X86533047Y-58552761D01*
X86437809Y-58600380D01*
X86342571Y-58600380D01*
X86247333Y-58552761D01*
X86199714Y-58505142D01*
X86152095Y-58409904D01*
X86104476Y-58219428D01*
X86104476Y-57981333D01*
X86152095Y-57790857D01*
X86199714Y-57695619D01*
X86247333Y-57648000D01*
X86342571Y-57600380D01*
X80072095Y-58920380D02*
X80072095Y-57920380D01*
X80643523Y-58920380D02*
X80214952Y-58348952D01*
X80643523Y-57920380D02*
X80072095Y-58491809D01*
%TO.C,Q30*%
X81032571Y-73261619D02*
X80937333Y-73214000D01*
X80842095Y-73118761D01*
X80699238Y-72975904D01*
X80604000Y-72928285D01*
X80508761Y-72928285D01*
X80556380Y-73166380D02*
X80461142Y-73118761D01*
X80365904Y-73023523D01*
X80318285Y-72833047D01*
X80318285Y-72499714D01*
X80365904Y-72309238D01*
X80461142Y-72214000D01*
X80556380Y-72166380D01*
X80746857Y-72166380D01*
X80842095Y-72214000D01*
X80937333Y-72309238D01*
X80984952Y-72499714D01*
X80984952Y-72833047D01*
X80937333Y-73023523D01*
X80842095Y-73118761D01*
X80746857Y-73166380D01*
X80556380Y-73166380D01*
X81318285Y-72166380D02*
X81937333Y-72166380D01*
X81604000Y-72547333D01*
X81746857Y-72547333D01*
X81842095Y-72594952D01*
X81889714Y-72642571D01*
X81937333Y-72737809D01*
X81937333Y-72975904D01*
X81889714Y-73071142D01*
X81842095Y-73118761D01*
X81746857Y-73166380D01*
X81461142Y-73166380D01*
X81365904Y-73118761D01*
X81318285Y-73071142D01*
X82556380Y-72166380D02*
X82651619Y-72166380D01*
X82746857Y-72214000D01*
X82794476Y-72261619D01*
X82842095Y-72356857D01*
X82889714Y-72547333D01*
X82889714Y-72785428D01*
X82842095Y-72975904D01*
X82794476Y-73071142D01*
X82746857Y-73118761D01*
X82651619Y-73166380D01*
X82556380Y-73166380D01*
X82461142Y-73118761D01*
X82413523Y-73071142D01*
X82365904Y-72975904D01*
X82318285Y-72785428D01*
X82318285Y-72547333D01*
X82365904Y-72356857D01*
X82413523Y-72261619D01*
X82461142Y-72214000D01*
X82556380Y-72166380D01*
%TO.C,C51*%
X70547142Y-63292142D02*
X70499523Y-63339761D01*
X70356666Y-63387380D01*
X70261428Y-63387380D01*
X70118571Y-63339761D01*
X70023333Y-63244523D01*
X69975714Y-63149285D01*
X69928095Y-62958809D01*
X69928095Y-62815952D01*
X69975714Y-62625476D01*
X70023333Y-62530238D01*
X70118571Y-62435000D01*
X70261428Y-62387380D01*
X70356666Y-62387380D01*
X70499523Y-62435000D01*
X70547142Y-62482619D01*
X71451904Y-62387380D02*
X70975714Y-62387380D01*
X70928095Y-62863571D01*
X70975714Y-62815952D01*
X71070952Y-62768333D01*
X71309047Y-62768333D01*
X71404285Y-62815952D01*
X71451904Y-62863571D01*
X71499523Y-62958809D01*
X71499523Y-63196904D01*
X71451904Y-63292142D01*
X71404285Y-63339761D01*
X71309047Y-63387380D01*
X71070952Y-63387380D01*
X70975714Y-63339761D01*
X70928095Y-63292142D01*
X72451904Y-63387380D02*
X71880476Y-63387380D01*
X72166190Y-63387380D02*
X72166190Y-62387380D01*
X72070952Y-62530238D01*
X71975714Y-62625476D01*
X71880476Y-62673095D01*
%TO.C,R10*%
X66737142Y-69187380D02*
X66403809Y-68711190D01*
X66165714Y-69187380D02*
X66165714Y-68187380D01*
X66546666Y-68187380D01*
X66641904Y-68235000D01*
X66689523Y-68282619D01*
X66737142Y-68377857D01*
X66737142Y-68520714D01*
X66689523Y-68615952D01*
X66641904Y-68663571D01*
X66546666Y-68711190D01*
X66165714Y-68711190D01*
X67689523Y-69187380D02*
X67118095Y-69187380D01*
X67403809Y-69187380D02*
X67403809Y-68187380D01*
X67308571Y-68330238D01*
X67213333Y-68425476D01*
X67118095Y-68473095D01*
X68308571Y-68187380D02*
X68403809Y-68187380D01*
X68499047Y-68235000D01*
X68546666Y-68282619D01*
X68594285Y-68377857D01*
X68641904Y-68568333D01*
X68641904Y-68806428D01*
X68594285Y-68996904D01*
X68546666Y-69092142D01*
X68499047Y-69139761D01*
X68403809Y-69187380D01*
X68308571Y-69187380D01*
X68213333Y-69139761D01*
X68165714Y-69092142D01*
X68118095Y-68996904D01*
X68070476Y-68806428D01*
X68070476Y-68568333D01*
X68118095Y-68377857D01*
X68165714Y-68282619D01*
X68213333Y-68235000D01*
X68308571Y-68187380D01*
%TO.C,C50*%
X78167142Y-51862142D02*
X78119523Y-51909761D01*
X77976666Y-51957380D01*
X77881428Y-51957380D01*
X77738571Y-51909761D01*
X77643333Y-51814523D01*
X77595714Y-51719285D01*
X77548095Y-51528809D01*
X77548095Y-51385952D01*
X77595714Y-51195476D01*
X77643333Y-51100238D01*
X77738571Y-51005000D01*
X77881428Y-50957380D01*
X77976666Y-50957380D01*
X78119523Y-51005000D01*
X78167142Y-51052619D01*
X79071904Y-50957380D02*
X78595714Y-50957380D01*
X78548095Y-51433571D01*
X78595714Y-51385952D01*
X78690952Y-51338333D01*
X78929047Y-51338333D01*
X79024285Y-51385952D01*
X79071904Y-51433571D01*
X79119523Y-51528809D01*
X79119523Y-51766904D01*
X79071904Y-51862142D01*
X79024285Y-51909761D01*
X78929047Y-51957380D01*
X78690952Y-51957380D01*
X78595714Y-51909761D01*
X78548095Y-51862142D01*
X79738571Y-50957380D02*
X79833809Y-50957380D01*
X79929047Y-51005000D01*
X79976666Y-51052619D01*
X80024285Y-51147857D01*
X80071904Y-51338333D01*
X80071904Y-51576428D01*
X80024285Y-51766904D01*
X79976666Y-51862142D01*
X79929047Y-51909761D01*
X79833809Y-51957380D01*
X79738571Y-51957380D01*
X79643333Y-51909761D01*
X79595714Y-51862142D01*
X79548095Y-51766904D01*
X79500476Y-51576428D01*
X79500476Y-51338333D01*
X79548095Y-51147857D01*
X79595714Y-51052619D01*
X79643333Y-51005000D01*
X79738571Y-50957380D01*
%TO.C,TP3*%
X69674095Y-92994380D02*
X70245523Y-92994380D01*
X69959809Y-93994380D02*
X69959809Y-92994380D01*
X70578857Y-93994380D02*
X70578857Y-92994380D01*
X70959809Y-92994380D01*
X71055047Y-93042000D01*
X71102666Y-93089619D01*
X71150285Y-93184857D01*
X71150285Y-93327714D01*
X71102666Y-93422952D01*
X71055047Y-93470571D01*
X70959809Y-93518190D01*
X70578857Y-93518190D01*
X71483619Y-92994380D02*
X72102666Y-92994380D01*
X71769333Y-93375333D01*
X71912190Y-93375333D01*
X72007428Y-93422952D01*
X72055047Y-93470571D01*
X72102666Y-93565809D01*
X72102666Y-93803904D01*
X72055047Y-93899142D01*
X72007428Y-93946761D01*
X71912190Y-93994380D01*
X71626476Y-93994380D01*
X71531238Y-93946761D01*
X71483619Y-93899142D01*
%TO.C,TP10*%
X70721904Y-70642380D02*
X71293333Y-70642380D01*
X71007619Y-71642380D02*
X71007619Y-70642380D01*
X71626666Y-71642380D02*
X71626666Y-70642380D01*
X72007619Y-70642380D01*
X72102857Y-70690000D01*
X72150476Y-70737619D01*
X72198095Y-70832857D01*
X72198095Y-70975714D01*
X72150476Y-71070952D01*
X72102857Y-71118571D01*
X72007619Y-71166190D01*
X71626666Y-71166190D01*
X73150476Y-71642380D02*
X72579047Y-71642380D01*
X72864761Y-71642380D02*
X72864761Y-70642380D01*
X72769523Y-70785238D01*
X72674285Y-70880476D01*
X72579047Y-70928095D01*
X73769523Y-70642380D02*
X73864761Y-70642380D01*
X73960000Y-70690000D01*
X74007619Y-70737619D01*
X74055238Y-70832857D01*
X74102857Y-71023333D01*
X74102857Y-71261428D01*
X74055238Y-71451904D01*
X74007619Y-71547142D01*
X73960000Y-71594761D01*
X73864761Y-71642380D01*
X73769523Y-71642380D01*
X73674285Y-71594761D01*
X73626666Y-71547142D01*
X73579047Y-71451904D01*
X73531428Y-71261428D01*
X73531428Y-71023333D01*
X73579047Y-70832857D01*
X73626666Y-70737619D01*
X73674285Y-70690000D01*
X73769523Y-70642380D01*
%TO.C,J3*%
X68959809Y-95724761D02*
X69102666Y-95772380D01*
X69340761Y-95772380D01*
X69436000Y-95724761D01*
X69483619Y-95677142D01*
X69531238Y-95581904D01*
X69531238Y-95486666D01*
X69483619Y-95391428D01*
X69436000Y-95343809D01*
X69340761Y-95296190D01*
X69150285Y-95248571D01*
X69055047Y-95200952D01*
X69007428Y-95153333D01*
X68959809Y-95058095D01*
X68959809Y-94962857D01*
X69007428Y-94867619D01*
X69055047Y-94820000D01*
X69150285Y-94772380D01*
X69388380Y-94772380D01*
X69531238Y-94820000D01*
X70483619Y-94820000D02*
X70388380Y-94772380D01*
X70245523Y-94772380D01*
X70102666Y-94820000D01*
X70007428Y-94915238D01*
X69959809Y-95010476D01*
X69912190Y-95200952D01*
X69912190Y-95343809D01*
X69959809Y-95534285D01*
X70007428Y-95629523D01*
X70102666Y-95724761D01*
X70245523Y-95772380D01*
X70340761Y-95772380D01*
X70483619Y-95724761D01*
X70531238Y-95677142D01*
X70531238Y-95343809D01*
X70340761Y-95343809D01*
X70721714Y-95867619D02*
X71483619Y-95867619D01*
X72197904Y-95772380D02*
X71721714Y-95772380D01*
X71721714Y-94772380D01*
X73007428Y-95772380D02*
X72531238Y-95772380D01*
X72531238Y-94772380D01*
%TO.C,R2*%
X61498333Y-91242380D02*
X61165000Y-90766190D01*
X60926904Y-91242380D02*
X60926904Y-90242380D01*
X61307857Y-90242380D01*
X61403095Y-90290000D01*
X61450714Y-90337619D01*
X61498333Y-90432857D01*
X61498333Y-90575714D01*
X61450714Y-90670952D01*
X61403095Y-90718571D01*
X61307857Y-90766190D01*
X60926904Y-90766190D01*
X61879285Y-90337619D02*
X61926904Y-90290000D01*
X62022142Y-90242380D01*
X62260238Y-90242380D01*
X62355476Y-90290000D01*
X62403095Y-90337619D01*
X62450714Y-90432857D01*
X62450714Y-90528095D01*
X62403095Y-90670952D01*
X61831666Y-91242380D01*
X62450714Y-91242380D01*
%TO.C,R31*%
X84771142Y-77484380D02*
X84437809Y-77008190D01*
X84199714Y-77484380D02*
X84199714Y-76484380D01*
X84580666Y-76484380D01*
X84675904Y-76532000D01*
X84723523Y-76579619D01*
X84771142Y-76674857D01*
X84771142Y-76817714D01*
X84723523Y-76912952D01*
X84675904Y-76960571D01*
X84580666Y-77008190D01*
X84199714Y-77008190D01*
X85104476Y-76484380D02*
X85723523Y-76484380D01*
X85390190Y-76865333D01*
X85533047Y-76865333D01*
X85628285Y-76912952D01*
X85675904Y-76960571D01*
X85723523Y-77055809D01*
X85723523Y-77293904D01*
X85675904Y-77389142D01*
X85628285Y-77436761D01*
X85533047Y-77484380D01*
X85247333Y-77484380D01*
X85152095Y-77436761D01*
X85104476Y-77389142D01*
X86675904Y-77484380D02*
X86104476Y-77484380D01*
X86390190Y-77484380D02*
X86390190Y-76484380D01*
X86294952Y-76627238D01*
X86199714Y-76722476D01*
X86104476Y-76770095D01*
%TO.C,R1*%
X73563333Y-91327380D02*
X73230000Y-90851190D01*
X72991904Y-91327380D02*
X72991904Y-90327380D01*
X73372857Y-90327380D01*
X73468095Y-90375000D01*
X73515714Y-90422619D01*
X73563333Y-90517857D01*
X73563333Y-90660714D01*
X73515714Y-90755952D01*
X73468095Y-90803571D01*
X73372857Y-90851190D01*
X72991904Y-90851190D01*
X74515714Y-91327380D02*
X73944285Y-91327380D01*
X74230000Y-91327380D02*
X74230000Y-90327380D01*
X74134761Y-90470238D01*
X74039523Y-90565476D01*
X73944285Y-90613095D01*
%TO.C,R100*%
X60392952Y-75071380D02*
X60059619Y-74595190D01*
X59821523Y-75071380D02*
X59821523Y-74071380D01*
X60202476Y-74071380D01*
X60297714Y-74119000D01*
X60345333Y-74166619D01*
X60392952Y-74261857D01*
X60392952Y-74404714D01*
X60345333Y-74499952D01*
X60297714Y-74547571D01*
X60202476Y-74595190D01*
X59821523Y-74595190D01*
X61345333Y-75071380D02*
X60773904Y-75071380D01*
X61059619Y-75071380D02*
X61059619Y-74071380D01*
X60964380Y-74214238D01*
X60869142Y-74309476D01*
X60773904Y-74357095D01*
X61964380Y-74071380D02*
X62059619Y-74071380D01*
X62154857Y-74119000D01*
X62202476Y-74166619D01*
X62250095Y-74261857D01*
X62297714Y-74452333D01*
X62297714Y-74690428D01*
X62250095Y-74880904D01*
X62202476Y-74976142D01*
X62154857Y-75023761D01*
X62059619Y-75071380D01*
X61964380Y-75071380D01*
X61869142Y-75023761D01*
X61821523Y-74976142D01*
X61773904Y-74880904D01*
X61726285Y-74690428D01*
X61726285Y-74452333D01*
X61773904Y-74261857D01*
X61821523Y-74166619D01*
X61869142Y-74119000D01*
X61964380Y-74071380D01*
X62916761Y-74071380D02*
X63012000Y-74071380D01*
X63107238Y-74119000D01*
X63154857Y-74166619D01*
X63202476Y-74261857D01*
X63250095Y-74452333D01*
X63250095Y-74690428D01*
X63202476Y-74880904D01*
X63154857Y-74976142D01*
X63107238Y-75023761D01*
X63012000Y-75071380D01*
X62916761Y-75071380D01*
X62821523Y-75023761D01*
X62773904Y-74976142D01*
X62726285Y-74880904D01*
X62678666Y-74690428D01*
X62678666Y-74452333D01*
X62726285Y-74261857D01*
X62773904Y-74166619D01*
X62821523Y-74119000D01*
X62916761Y-74071380D01*
%TO.C,R23*%
X79437142Y-87517380D02*
X79103809Y-87041190D01*
X78865714Y-87517380D02*
X78865714Y-86517380D01*
X79246666Y-86517380D01*
X79341904Y-86565000D01*
X79389523Y-86612619D01*
X79437142Y-86707857D01*
X79437142Y-86850714D01*
X79389523Y-86945952D01*
X79341904Y-86993571D01*
X79246666Y-87041190D01*
X78865714Y-87041190D01*
X79818095Y-86612619D02*
X79865714Y-86565000D01*
X79960952Y-86517380D01*
X80199047Y-86517380D01*
X80294285Y-86565000D01*
X80341904Y-86612619D01*
X80389523Y-86707857D01*
X80389523Y-86803095D01*
X80341904Y-86945952D01*
X79770476Y-87517380D01*
X80389523Y-87517380D01*
X80722857Y-86517380D02*
X81341904Y-86517380D01*
X81008571Y-86898333D01*
X81151428Y-86898333D01*
X81246666Y-86945952D01*
X81294285Y-86993571D01*
X81341904Y-87088809D01*
X81341904Y-87326904D01*
X81294285Y-87422142D01*
X81246666Y-87469761D01*
X81151428Y-87517380D01*
X80865714Y-87517380D01*
X80770476Y-87469761D01*
X80722857Y-87422142D01*
%TO.C,C10*%
X66737142Y-78659142D02*
X66689523Y-78706761D01*
X66546666Y-78754380D01*
X66451428Y-78754380D01*
X66308571Y-78706761D01*
X66213333Y-78611523D01*
X66165714Y-78516285D01*
X66118095Y-78325809D01*
X66118095Y-78182952D01*
X66165714Y-77992476D01*
X66213333Y-77897238D01*
X66308571Y-77802000D01*
X66451428Y-77754380D01*
X66546666Y-77754380D01*
X66689523Y-77802000D01*
X66737142Y-77849619D01*
X67689523Y-78754380D02*
X67118095Y-78754380D01*
X67403809Y-78754380D02*
X67403809Y-77754380D01*
X67308571Y-77897238D01*
X67213333Y-77992476D01*
X67118095Y-78040095D01*
X68308571Y-77754380D02*
X68403809Y-77754380D01*
X68499047Y-77802000D01*
X68546666Y-77849619D01*
X68594285Y-77944857D01*
X68641904Y-78135333D01*
X68641904Y-78373428D01*
X68594285Y-78563904D01*
X68546666Y-78659142D01*
X68499047Y-78706761D01*
X68403809Y-78754380D01*
X68308571Y-78754380D01*
X68213333Y-78706761D01*
X68165714Y-78659142D01*
X68118095Y-78563904D01*
X68070476Y-78373428D01*
X68070476Y-78135333D01*
X68118095Y-77944857D01*
X68165714Y-77849619D01*
X68213333Y-77802000D01*
X68308571Y-77754380D01*
%TO.C,D30*%
X84199714Y-82818380D02*
X84199714Y-81818380D01*
X84437809Y-81818380D01*
X84580666Y-81866000D01*
X84675904Y-81961238D01*
X84723523Y-82056476D01*
X84771142Y-82246952D01*
X84771142Y-82389809D01*
X84723523Y-82580285D01*
X84675904Y-82675523D01*
X84580666Y-82770761D01*
X84437809Y-82818380D01*
X84199714Y-82818380D01*
X85104476Y-81818380D02*
X85723523Y-81818380D01*
X85390190Y-82199333D01*
X85533047Y-82199333D01*
X85628285Y-82246952D01*
X85675904Y-82294571D01*
X85723523Y-82389809D01*
X85723523Y-82627904D01*
X85675904Y-82723142D01*
X85628285Y-82770761D01*
X85533047Y-82818380D01*
X85247333Y-82818380D01*
X85152095Y-82770761D01*
X85104476Y-82723142D01*
X86342571Y-81818380D02*
X86437809Y-81818380D01*
X86533047Y-81866000D01*
X86580666Y-81913619D01*
X86628285Y-82008857D01*
X86675904Y-82199333D01*
X86675904Y-82437428D01*
X86628285Y-82627904D01*
X86580666Y-82723142D01*
X86533047Y-82770761D01*
X86437809Y-82818380D01*
X86342571Y-82818380D01*
X86247333Y-82770761D01*
X86199714Y-82723142D01*
X86152095Y-82627904D01*
X86104476Y-82437428D01*
X86104476Y-82199333D01*
X86152095Y-82008857D01*
X86199714Y-81913619D01*
X86247333Y-81866000D01*
X86342571Y-81818380D01*
%TO.C,J1*%
X56648761Y-95724761D02*
X56791619Y-95772380D01*
X57029714Y-95772380D01*
X57124952Y-95724761D01*
X57172571Y-95677142D01*
X57220190Y-95581904D01*
X57220190Y-95486666D01*
X57172571Y-95391428D01*
X57124952Y-95343809D01*
X57029714Y-95296190D01*
X56839238Y-95248571D01*
X56744000Y-95200952D01*
X56696380Y-95153333D01*
X56648761Y-95058095D01*
X56648761Y-94962857D01*
X56696380Y-94867619D01*
X56744000Y-94820000D01*
X56839238Y-94772380D01*
X57077333Y-94772380D01*
X57220190Y-94820000D01*
X58172571Y-94820000D02*
X58077333Y-94772380D01*
X57934476Y-94772380D01*
X57791619Y-94820000D01*
X57696380Y-94915238D01*
X57648761Y-95010476D01*
X57601142Y-95200952D01*
X57601142Y-95343809D01*
X57648761Y-95534285D01*
X57696380Y-95629523D01*
X57791619Y-95724761D01*
X57934476Y-95772380D01*
X58029714Y-95772380D01*
X58172571Y-95724761D01*
X58220190Y-95677142D01*
X58220190Y-95343809D01*
X58029714Y-95343809D01*
X58410666Y-95867619D02*
X59172571Y-95867619D01*
X59410666Y-94772380D02*
X59410666Y-95581904D01*
X59458285Y-95677142D01*
X59505904Y-95724761D01*
X59601142Y-95772380D01*
X59791619Y-95772380D01*
X59886857Y-95724761D01*
X59934476Y-95677142D01*
X59982095Y-95581904D01*
X59982095Y-94772380D01*
X60934476Y-95772380D02*
X60458285Y-95772380D01*
X60458285Y-94772380D01*
%TO.C,J5*%
X54608571Y-88786904D02*
X54608571Y-89120238D01*
X55132380Y-89120238D02*
X54132380Y-89120238D01*
X54132380Y-88644047D01*
X54132380Y-88263095D02*
X54941904Y-88263095D01*
X55037142Y-88215476D01*
X55084761Y-88167857D01*
X55132380Y-88072619D01*
X55132380Y-87882142D01*
X55084761Y-87786904D01*
X55037142Y-87739285D01*
X54941904Y-87691666D01*
X54132380Y-87691666D01*
X55132380Y-86739285D02*
X55132380Y-87215476D01*
X54132380Y-87215476D01*
X55132380Y-85929761D02*
X55132380Y-86405952D01*
X54132380Y-86405952D01*
X55227619Y-85834523D02*
X55227619Y-85072619D01*
X54608571Y-84501190D02*
X54656190Y-84358333D01*
X54703809Y-84310714D01*
X54799047Y-84263095D01*
X54941904Y-84263095D01*
X55037142Y-84310714D01*
X55084761Y-84358333D01*
X55132380Y-84453571D01*
X55132380Y-84834523D01*
X54132380Y-84834523D01*
X54132380Y-84501190D01*
X54180000Y-84405952D01*
X54227619Y-84358333D01*
X54322857Y-84310714D01*
X54418095Y-84310714D01*
X54513333Y-84358333D01*
X54560952Y-84405952D01*
X54608571Y-84501190D01*
X54608571Y-84834523D01*
X55132380Y-83263095D02*
X54656190Y-83596428D01*
X55132380Y-83834523D02*
X54132380Y-83834523D01*
X54132380Y-83453571D01*
X54180000Y-83358333D01*
X54227619Y-83310714D01*
X54322857Y-83263095D01*
X54465714Y-83263095D01*
X54560952Y-83310714D01*
X54608571Y-83358333D01*
X54656190Y-83453571D01*
X54656190Y-83834523D01*
X55132380Y-82834523D02*
X54132380Y-82834523D01*
X55132380Y-82358333D02*
X54132380Y-82358333D01*
X54132380Y-82120238D01*
X54180000Y-81977380D01*
X54275238Y-81882142D01*
X54370476Y-81834523D01*
X54560952Y-81786904D01*
X54703809Y-81786904D01*
X54894285Y-81834523D01*
X54989523Y-81882142D01*
X55084761Y-81977380D01*
X55132380Y-82120238D01*
X55132380Y-82358333D01*
X54180000Y-80834523D02*
X54132380Y-80929761D01*
X54132380Y-81072619D01*
X54180000Y-81215476D01*
X54275238Y-81310714D01*
X54370476Y-81358333D01*
X54560952Y-81405952D01*
X54703809Y-81405952D01*
X54894285Y-81358333D01*
X54989523Y-81310714D01*
X55084761Y-81215476D01*
X55132380Y-81072619D01*
X55132380Y-80977380D01*
X55084761Y-80834523D01*
X55037142Y-80786904D01*
X54703809Y-80786904D01*
X54703809Y-80977380D01*
X54608571Y-80358333D02*
X54608571Y-80025000D01*
X55132380Y-79882142D02*
X55132380Y-80358333D01*
X54132380Y-80358333D01*
X54132380Y-79882142D01*
%TO.C,R5*%
X67213333Y-91242380D02*
X66880000Y-90766190D01*
X66641904Y-91242380D02*
X66641904Y-90242380D01*
X67022857Y-90242380D01*
X67118095Y-90290000D01*
X67165714Y-90337619D01*
X67213333Y-90432857D01*
X67213333Y-90575714D01*
X67165714Y-90670952D01*
X67118095Y-90718571D01*
X67022857Y-90766190D01*
X66641904Y-90766190D01*
X68118095Y-90242380D02*
X67641904Y-90242380D01*
X67594285Y-90718571D01*
X67641904Y-90670952D01*
X67737142Y-90623333D01*
X67975238Y-90623333D01*
X68070476Y-90670952D01*
X68118095Y-90718571D01*
X68165714Y-90813809D01*
X68165714Y-91051904D01*
X68118095Y-91147142D01*
X68070476Y-91194761D01*
X67975238Y-91242380D01*
X67737142Y-91242380D01*
X67641904Y-91194761D01*
X67594285Y-91147142D01*
%TO.C,U1*%
X59252095Y-82072380D02*
X59252095Y-82881904D01*
X59299714Y-82977142D01*
X59347333Y-83024761D01*
X59442571Y-83072380D01*
X59633047Y-83072380D01*
X59728285Y-83024761D01*
X59775904Y-82977142D01*
X59823523Y-82881904D01*
X59823523Y-82072380D01*
X60823523Y-83072380D02*
X60252095Y-83072380D01*
X60537809Y-83072380D02*
X60537809Y-82072380D01*
X60442571Y-82215238D01*
X60347333Y-82310476D01*
X60252095Y-82358095D01*
%TO.C,D40*%
X94502380Y-83580285D02*
X93502380Y-83580285D01*
X93502380Y-83342190D01*
X93550000Y-83199333D01*
X93645238Y-83104095D01*
X93740476Y-83056476D01*
X93930952Y-83008857D01*
X94073809Y-83008857D01*
X94264285Y-83056476D01*
X94359523Y-83104095D01*
X94454761Y-83199333D01*
X94502380Y-83342190D01*
X94502380Y-83580285D01*
X93835714Y-82151714D02*
X94502380Y-82151714D01*
X93454761Y-82389809D02*
X94169047Y-82627904D01*
X94169047Y-82008857D01*
X93502380Y-81437428D02*
X93502380Y-81342190D01*
X93550000Y-81246952D01*
X93597619Y-81199333D01*
X93692857Y-81151714D01*
X93883333Y-81104095D01*
X94121428Y-81104095D01*
X94311904Y-81151714D01*
X94407142Y-81199333D01*
X94454761Y-81246952D01*
X94502380Y-81342190D01*
X94502380Y-81437428D01*
X94454761Y-81532666D01*
X94407142Y-81580285D01*
X94311904Y-81627904D01*
X94121428Y-81675523D01*
X93883333Y-81675523D01*
X93692857Y-81627904D01*
X93597619Y-81580285D01*
X93550000Y-81532666D01*
X93502380Y-81437428D01*
X92772095Y-79357380D02*
X92772095Y-78357380D01*
X93343523Y-79357380D02*
X92914952Y-78785952D01*
X93343523Y-78357380D02*
X92772095Y-78928809D01*
%TO.C,R11*%
X66711142Y-75240380D02*
X66377809Y-74764190D01*
X66139714Y-75240380D02*
X66139714Y-74240380D01*
X66520666Y-74240380D01*
X66615904Y-74288000D01*
X66663523Y-74335619D01*
X66711142Y-74430857D01*
X66711142Y-74573714D01*
X66663523Y-74668952D01*
X66615904Y-74716571D01*
X66520666Y-74764190D01*
X66139714Y-74764190D01*
X67663523Y-75240380D02*
X67092095Y-75240380D01*
X67377809Y-75240380D02*
X67377809Y-74240380D01*
X67282571Y-74383238D01*
X67187333Y-74478476D01*
X67092095Y-74526095D01*
X68615904Y-75240380D02*
X68044476Y-75240380D01*
X68330190Y-75240380D02*
X68330190Y-74240380D01*
X68234952Y-74383238D01*
X68139714Y-74478476D01*
X68044476Y-74526095D01*
%TO.C,U30*%
X89011904Y-71912380D02*
X89011904Y-72721904D01*
X89059523Y-72817142D01*
X89107142Y-72864761D01*
X89202380Y-72912380D01*
X89392857Y-72912380D01*
X89488095Y-72864761D01*
X89535714Y-72817142D01*
X89583333Y-72721904D01*
X89583333Y-71912380D01*
X89964285Y-71912380D02*
X90583333Y-71912380D01*
X90250000Y-72293333D01*
X90392857Y-72293333D01*
X90488095Y-72340952D01*
X90535714Y-72388571D01*
X90583333Y-72483809D01*
X90583333Y-72721904D01*
X90535714Y-72817142D01*
X90488095Y-72864761D01*
X90392857Y-72912380D01*
X90107142Y-72912380D01*
X90011904Y-72864761D01*
X89964285Y-72817142D01*
X91202380Y-71912380D02*
X91297619Y-71912380D01*
X91392857Y-71960000D01*
X91440476Y-72007619D01*
X91488095Y-72102857D01*
X91535714Y-72293333D01*
X91535714Y-72531428D01*
X91488095Y-72721904D01*
X91440476Y-72817142D01*
X91392857Y-72864761D01*
X91297619Y-72912380D01*
X91202380Y-72912380D01*
X91107142Y-72864761D01*
X91059523Y-72817142D01*
X91011904Y-72721904D01*
X90964285Y-72531428D01*
X90964285Y-72293333D01*
X91011904Y-72102857D01*
X91059523Y-72007619D01*
X91107142Y-71960000D01*
X91202380Y-71912380D01*
%TO.C,J4*%
X88168571Y-95724761D02*
X88311428Y-95772380D01*
X88549523Y-95772380D01*
X88644761Y-95724761D01*
X88692380Y-95677142D01*
X88740000Y-95581904D01*
X88740000Y-95486666D01*
X88692380Y-95391428D01*
X88644761Y-95343809D01*
X88549523Y-95296190D01*
X88359047Y-95248571D01*
X88263809Y-95200952D01*
X88216190Y-95153333D01*
X88168571Y-95058095D01*
X88168571Y-94962857D01*
X88216190Y-94867619D01*
X88263809Y-94820000D01*
X88359047Y-94772380D01*
X88597142Y-94772380D01*
X88740000Y-94820000D01*
X89692380Y-94820000D02*
X89597142Y-94772380D01*
X89454285Y-94772380D01*
X89311428Y-94820000D01*
X89216190Y-94915238D01*
X89168571Y-95010476D01*
X89120952Y-95200952D01*
X89120952Y-95343809D01*
X89168571Y-95534285D01*
X89216190Y-95629523D01*
X89311428Y-95724761D01*
X89454285Y-95772380D01*
X89549523Y-95772380D01*
X89692380Y-95724761D01*
X89740000Y-95677142D01*
X89740000Y-95343809D01*
X89549523Y-95343809D01*
X89930476Y-95867619D02*
X90692380Y-95867619D01*
X91406666Y-95772380D02*
X90930476Y-95772380D01*
X90930476Y-94772380D01*
X92311428Y-95772380D02*
X91978095Y-95296190D01*
X91740000Y-95772380D02*
X91740000Y-94772380D01*
X92120952Y-94772380D01*
X92216190Y-94820000D01*
X92263809Y-94867619D01*
X92311428Y-94962857D01*
X92311428Y-95105714D01*
X92263809Y-95200952D01*
X92216190Y-95248571D01*
X92120952Y-95296190D01*
X91740000Y-95296190D01*
%TO.C,D60*%
X88785714Y-91708380D02*
X88785714Y-90708380D01*
X89023809Y-90708380D01*
X89166666Y-90756000D01*
X89261904Y-90851238D01*
X89309523Y-90946476D01*
X89357142Y-91136952D01*
X89357142Y-91279809D01*
X89309523Y-91470285D01*
X89261904Y-91565523D01*
X89166666Y-91660761D01*
X89023809Y-91708380D01*
X88785714Y-91708380D01*
X90214285Y-90708380D02*
X90023809Y-90708380D01*
X89928571Y-90756000D01*
X89880952Y-90803619D01*
X89785714Y-90946476D01*
X89738095Y-91136952D01*
X89738095Y-91517904D01*
X89785714Y-91613142D01*
X89833333Y-91660761D01*
X89928571Y-91708380D01*
X90119047Y-91708380D01*
X90214285Y-91660761D01*
X90261904Y-91613142D01*
X90309523Y-91517904D01*
X90309523Y-91279809D01*
X90261904Y-91184571D01*
X90214285Y-91136952D01*
X90119047Y-91089333D01*
X89928571Y-91089333D01*
X89833333Y-91136952D01*
X89785714Y-91184571D01*
X89738095Y-91279809D01*
X90928571Y-90708380D02*
X91023809Y-90708380D01*
X91119047Y-90756000D01*
X91166666Y-90803619D01*
X91214285Y-90898857D01*
X91261904Y-91089333D01*
X91261904Y-91327428D01*
X91214285Y-91517904D01*
X91166666Y-91613142D01*
X91119047Y-91660761D01*
X91023809Y-91708380D01*
X90928571Y-91708380D01*
X90833333Y-91660761D01*
X90785714Y-91613142D01*
X90738095Y-91517904D01*
X90690476Y-91327428D01*
X90690476Y-91089333D01*
X90738095Y-90898857D01*
X90785714Y-90803619D01*
X90833333Y-90756000D01*
X90928571Y-90708380D01*
%TO.C,R22*%
X73087142Y-82564380D02*
X72753809Y-82088190D01*
X72515714Y-82564380D02*
X72515714Y-81564380D01*
X72896666Y-81564380D01*
X72991904Y-81612000D01*
X73039523Y-81659619D01*
X73087142Y-81754857D01*
X73087142Y-81897714D01*
X73039523Y-81992952D01*
X72991904Y-82040571D01*
X72896666Y-82088190D01*
X72515714Y-82088190D01*
X73468095Y-81659619D02*
X73515714Y-81612000D01*
X73610952Y-81564380D01*
X73849047Y-81564380D01*
X73944285Y-81612000D01*
X73991904Y-81659619D01*
X74039523Y-81754857D01*
X74039523Y-81850095D01*
X73991904Y-81992952D01*
X73420476Y-82564380D01*
X74039523Y-82564380D01*
X74420476Y-81659619D02*
X74468095Y-81612000D01*
X74563333Y-81564380D01*
X74801428Y-81564380D01*
X74896666Y-81612000D01*
X74944285Y-81659619D01*
X74991904Y-81754857D01*
X74991904Y-81850095D01*
X74944285Y-81992952D01*
X74372857Y-82564380D01*
X74991904Y-82564380D01*
%TO.C,J6*%
X78984666Y-92232380D02*
X78984666Y-92946666D01*
X78937047Y-93089523D01*
X78841809Y-93184761D01*
X78698952Y-93232380D01*
X78603714Y-93232380D01*
X79889428Y-92232380D02*
X79698952Y-92232380D01*
X79603714Y-92280000D01*
X79556095Y-92327619D01*
X79460857Y-92470476D01*
X79413238Y-92660952D01*
X79413238Y-93041904D01*
X79460857Y-93137142D01*
X79508476Y-93184761D01*
X79603714Y-93232380D01*
X79794190Y-93232380D01*
X79889428Y-93184761D01*
X79937047Y-93137142D01*
X79984666Y-93041904D01*
X79984666Y-92803809D01*
X79937047Y-92708571D01*
X79889428Y-92660952D01*
X79794190Y-92613333D01*
X79603714Y-92613333D01*
X79508476Y-92660952D01*
X79460857Y-92708571D01*
X79413238Y-92803809D01*
%TO.C,Q20*%
X78873571Y-83421619D02*
X78778333Y-83374000D01*
X78683095Y-83278761D01*
X78540238Y-83135904D01*
X78445000Y-83088285D01*
X78349761Y-83088285D01*
X78397380Y-83326380D02*
X78302142Y-83278761D01*
X78206904Y-83183523D01*
X78159285Y-82993047D01*
X78159285Y-82659714D01*
X78206904Y-82469238D01*
X78302142Y-82374000D01*
X78397380Y-82326380D01*
X78587857Y-82326380D01*
X78683095Y-82374000D01*
X78778333Y-82469238D01*
X78825952Y-82659714D01*
X78825952Y-82993047D01*
X78778333Y-83183523D01*
X78683095Y-83278761D01*
X78587857Y-83326380D01*
X78397380Y-83326380D01*
X79206904Y-82421619D02*
X79254523Y-82374000D01*
X79349761Y-82326380D01*
X79587857Y-82326380D01*
X79683095Y-82374000D01*
X79730714Y-82421619D01*
X79778333Y-82516857D01*
X79778333Y-82612095D01*
X79730714Y-82754952D01*
X79159285Y-83326380D01*
X79778333Y-83326380D01*
X80397380Y-82326380D02*
X80492619Y-82326380D01*
X80587857Y-82374000D01*
X80635476Y-82421619D01*
X80683095Y-82516857D01*
X80730714Y-82707333D01*
X80730714Y-82945428D01*
X80683095Y-83135904D01*
X80635476Y-83231142D01*
X80587857Y-83278761D01*
X80492619Y-83326380D01*
X80397380Y-83326380D01*
X80302142Y-83278761D01*
X80254523Y-83231142D01*
X80206904Y-83135904D01*
X80159285Y-82945428D01*
X80159285Y-82707333D01*
X80206904Y-82516857D01*
X80254523Y-82421619D01*
X80302142Y-82374000D01*
X80397380Y-82326380D01*
%TO.C,R60*%
X84357142Y-91708380D02*
X84023809Y-91232190D01*
X83785714Y-91708380D02*
X83785714Y-90708380D01*
X84166666Y-90708380D01*
X84261904Y-90756000D01*
X84309523Y-90803619D01*
X84357142Y-90898857D01*
X84357142Y-91041714D01*
X84309523Y-91136952D01*
X84261904Y-91184571D01*
X84166666Y-91232190D01*
X83785714Y-91232190D01*
X85214285Y-90708380D02*
X85023809Y-90708380D01*
X84928571Y-90756000D01*
X84880952Y-90803619D01*
X84785714Y-90946476D01*
X84738095Y-91136952D01*
X84738095Y-91517904D01*
X84785714Y-91613142D01*
X84833333Y-91660761D01*
X84928571Y-91708380D01*
X85119047Y-91708380D01*
X85214285Y-91660761D01*
X85261904Y-91613142D01*
X85309523Y-91517904D01*
X85309523Y-91279809D01*
X85261904Y-91184571D01*
X85214285Y-91136952D01*
X85119047Y-91089333D01*
X84928571Y-91089333D01*
X84833333Y-91136952D01*
X84785714Y-91184571D01*
X84738095Y-91279809D01*
X85928571Y-90708380D02*
X86023809Y-90708380D01*
X86119047Y-90756000D01*
X86166666Y-90803619D01*
X86214285Y-90898857D01*
X86261904Y-91089333D01*
X86261904Y-91327428D01*
X86214285Y-91517904D01*
X86166666Y-91613142D01*
X86119047Y-91660761D01*
X86023809Y-91708380D01*
X85928571Y-91708380D01*
X85833333Y-91660761D01*
X85785714Y-91613142D01*
X85738095Y-91517904D01*
X85690476Y-91327428D01*
X85690476Y-91089333D01*
X85738095Y-90898857D01*
X85785714Y-90803619D01*
X85833333Y-90756000D01*
X85928571Y-90708380D01*
%TO.C,C52*%
X81977142Y-63673142D02*
X81929523Y-63720761D01*
X81786666Y-63768380D01*
X81691428Y-63768380D01*
X81548571Y-63720761D01*
X81453333Y-63625523D01*
X81405714Y-63530285D01*
X81358095Y-63339809D01*
X81358095Y-63196952D01*
X81405714Y-63006476D01*
X81453333Y-62911238D01*
X81548571Y-62816000D01*
X81691428Y-62768380D01*
X81786666Y-62768380D01*
X81929523Y-62816000D01*
X81977142Y-62863619D01*
X82881904Y-62768380D02*
X82405714Y-62768380D01*
X82358095Y-63244571D01*
X82405714Y-63196952D01*
X82500952Y-63149333D01*
X82739047Y-63149333D01*
X82834285Y-63196952D01*
X82881904Y-63244571D01*
X82929523Y-63339809D01*
X82929523Y-63577904D01*
X82881904Y-63673142D01*
X82834285Y-63720761D01*
X82739047Y-63768380D01*
X82500952Y-63768380D01*
X82405714Y-63720761D01*
X82358095Y-63673142D01*
X83310476Y-62863619D02*
X83358095Y-62816000D01*
X83453333Y-62768380D01*
X83691428Y-62768380D01*
X83786666Y-62816000D01*
X83834285Y-62863619D01*
X83881904Y-62958857D01*
X83881904Y-63054095D01*
X83834285Y-63196952D01*
X83262857Y-63768380D01*
X83881904Y-63768380D01*
D11*
%TO.C,Q40*%
X91165000Y-88335000D02*
X91165000Y-87685000D01*
X88045000Y-88335000D02*
X88045000Y-90010000D01*
X91165000Y-88335000D02*
X91165000Y-88985000D01*
X88045000Y-88335000D02*
X88045000Y-87685000D01*
%TO.C,U50*%
X73495000Y-69910000D02*
X74755000Y-69910000D01*
X80315000Y-63900000D02*
X80315000Y-69910000D01*
X80315000Y-69910000D02*
X79055000Y-69910000D01*
X73495000Y-66150000D02*
X73495000Y-69910000D01*
%TO.C,J40*%
X96530000Y-80080000D02*
X99190000Y-80080000D01*
X96530000Y-80080000D02*
X96530000Y-82680000D01*
X96530000Y-82680000D02*
X99190000Y-82680000D01*
X96530000Y-77480000D02*
X97860000Y-77480000D01*
X96530000Y-78810000D02*
X96530000Y-77480000D01*
X99190000Y-80080000D02*
X99190000Y-82680000D01*
%TO.C,J31*%
X99190000Y-72460000D02*
X99190000Y-75060000D01*
X96530000Y-75060000D02*
X99190000Y-75060000D01*
X96530000Y-72460000D02*
X99190000Y-72460000D01*
X96530000Y-72460000D02*
X96530000Y-75060000D01*
X96530000Y-69860000D02*
X97860000Y-69860000D01*
X96530000Y-71190000D02*
X96530000Y-69860000D01*
%TO.C,J50*%
X62940000Y-65009000D02*
X60240000Y-65009000D01*
X60240000Y-65009000D02*
X60240000Y-63109000D01*
X69640000Y-64159000D02*
X69640000Y-65209000D01*
X68590000Y-65209000D02*
X69640000Y-65209000D01*
X69440000Y-50309000D02*
X69440000Y-65009000D01*
X60240000Y-59109000D02*
X60240000Y-50309000D01*
X60240000Y-50309000D02*
X69440000Y-50309000D01*
X69440000Y-65009000D02*
X66840000Y-65009000D01*
%TO.C,D10*%
X71270000Y-78040000D02*
X75330000Y-78040000D01*
X75330000Y-75770000D02*
X71270000Y-75770000D01*
X71270000Y-75770000D02*
X71270000Y-78040000D01*
%TO.C,R20*%
X73002936Y-84250000D02*
X74457064Y-84250000D01*
X73002936Y-86070000D02*
X74457064Y-86070000D01*
%TO.C,J51*%
X57855000Y-68650000D02*
X57855000Y-58490000D01*
X51505000Y-68650000D02*
X51505000Y-58490000D01*
X50235000Y-58490000D02*
X50235000Y-68650000D01*
X57855000Y-58490000D02*
X50235000Y-58490000D01*
X50235000Y-68650000D02*
X57855000Y-68650000D01*
%TO.C,R21*%
X79352936Y-88060000D02*
X80807064Y-88060000D01*
X79352936Y-89880000D02*
X80807064Y-89880000D01*
%TO.C,J30*%
X96530000Y-89605000D02*
X99190000Y-89605000D01*
X96530000Y-88335000D02*
X96530000Y-87005000D01*
X96530000Y-87005000D02*
X97860000Y-87005000D01*
X96530000Y-89665000D02*
X99190000Y-89665000D01*
X96530000Y-89605000D02*
X96530000Y-89665000D01*
X99190000Y-89605000D02*
X99190000Y-89665000D01*
%TO.C,C1*%
X58566252Y-80990000D02*
X57143748Y-80990000D01*
X58566252Y-79170000D02*
X57143748Y-79170000D01*
%TO.C,J10*%
X50810000Y-74360000D02*
X53470000Y-74360000D01*
X50810000Y-73090000D02*
X50810000Y-71760000D01*
X50810000Y-71760000D02*
X52140000Y-71760000D01*
X50810000Y-76960000D02*
X53470000Y-76960000D01*
X50810000Y-74360000D02*
X50810000Y-76960000D01*
X53470000Y-74360000D02*
X53470000Y-76960000D01*
%TO.C,J2*%
X83965000Y-99190000D02*
X83965000Y-96530000D01*
X78825000Y-99190000D02*
X83965000Y-99190000D01*
X77555000Y-99190000D02*
X76225000Y-99190000D01*
X78825000Y-96530000D02*
X83965000Y-96530000D01*
X76225000Y-99190000D02*
X76225000Y-97860000D01*
X78825000Y-99190000D02*
X78825000Y-96530000D01*
%TO.C,R4*%
X66652936Y-91616000D02*
X68107064Y-91616000D01*
X66652936Y-93436000D02*
X68107064Y-93436000D01*
%TO.C,R30*%
X90459064Y-78662000D02*
X89004936Y-78662000D01*
X90459064Y-80482000D02*
X89004936Y-80482000D01*
%TO.C,R3*%
X61064936Y-93436000D02*
X62519064Y-93436000D01*
X61064936Y-91616000D02*
X62519064Y-91616000D01*
%TO.C,D50*%
X81374000Y-60268000D02*
X83294000Y-60268000D01*
X87534000Y-59148000D02*
X83294000Y-59148000D01*
X84134000Y-59148000D02*
X84134000Y-61388000D01*
X84014000Y-59148000D02*
X84014000Y-61388000D01*
X87534000Y-61388000D02*
X87534000Y-59148000D01*
X83294000Y-59148000D02*
X83294000Y-61388000D01*
X83894000Y-59148000D02*
X83894000Y-61388000D01*
X83294000Y-61388000D02*
X87534000Y-61388000D01*
X89454000Y-60268000D02*
X87534000Y-60268000D01*
%TO.C,Q30*%
X77885000Y-75000000D02*
X77885000Y-74350000D01*
X81005000Y-75000000D02*
X81005000Y-75650000D01*
X81005000Y-75000000D02*
X81005000Y-74350000D01*
X77885000Y-75000000D02*
X77885000Y-76675000D01*
%TO.C,C51*%
X72100000Y-65398748D02*
X72100000Y-66821252D01*
X70280000Y-65398748D02*
X70280000Y-66821252D01*
%TO.C,R10*%
X66652936Y-71465000D02*
X68107064Y-71465000D01*
X66652936Y-69645000D02*
X68107064Y-69645000D01*
%TO.C,C50*%
X70341000Y-54537651D02*
X78389000Y-54537651D01*
X75405000Y-52816651D02*
X77674000Y-52816651D01*
X75405000Y-53216651D02*
X77927000Y-53216651D01*
X70488000Y-53936651D02*
X78242000Y-53936651D01*
X75405000Y-51936651D02*
X76819000Y-51936651D01*
X72552000Y-51536651D02*
X76178000Y-51536651D01*
X75405000Y-52456651D02*
X77384000Y-52456651D01*
X71911000Y-51936651D02*
X73325000Y-51936651D01*
X72137000Y-51776651D02*
X73325000Y-51776651D01*
X70291000Y-54977651D02*
X78439000Y-54977651D01*
X70759000Y-53296651D02*
X73325000Y-53296651D01*
X71310000Y-52496651D02*
X73325000Y-52496651D01*
X72078000Y-51816651D02*
X73325000Y-51816651D01*
X73832000Y-51136651D02*
X74898000Y-51136651D01*
X75405000Y-53376651D02*
X78012000Y-53376651D01*
X75405000Y-52376651D02*
X77310000Y-52376651D01*
X70476000Y-53976651D02*
X78254000Y-53976651D01*
X70825000Y-53176651D02*
X73325000Y-53176651D01*
X71382000Y-52416651D02*
X73325000Y-52416651D01*
X71176000Y-52656651D02*
X73325000Y-52656651D01*
X75405000Y-53456651D02*
X78051000Y-53456651D01*
X70515000Y-53856651D02*
X78215000Y-53856651D01*
X70738000Y-53336651D02*
X73325000Y-53336651D01*
X75405000Y-53736651D02*
X78170000Y-53736651D01*
X70608000Y-53616651D02*
X73325000Y-53616651D01*
X75405000Y-52856651D02*
X77703000Y-52856651D01*
X75405000Y-52256651D02*
X77191000Y-52256651D01*
X75405000Y-53696651D02*
X78155000Y-53696651D01*
X75405000Y-52336651D02*
X77272000Y-52336651D01*
X72263000Y-51696651D02*
X73325000Y-51696651D01*
X72020000Y-51856651D02*
X73325000Y-51856651D01*
X70418000Y-54176651D02*
X78312000Y-54176651D01*
X70389000Y-54296651D02*
X78341000Y-54296651D01*
X75405000Y-51896651D02*
X76765000Y-51896651D01*
X73597000Y-51176651D02*
X75133000Y-51176651D01*
X70718000Y-53376651D02*
X73325000Y-53376651D01*
X70408000Y-54216651D02*
X78322000Y-54216651D01*
X71241000Y-52576651D02*
X73325000Y-52576651D01*
X75405000Y-53336651D02*
X77992000Y-53336651D01*
X71085000Y-52776651D02*
X73325000Y-52776651D01*
X71209000Y-52616651D02*
X73325000Y-52616651D01*
X70544000Y-53776651D02*
X78186000Y-53776651D01*
X70304000Y-54817651D02*
X78426000Y-54817651D01*
X70355000Y-54456651D02*
X78375000Y-54456651D01*
X70297000Y-54897651D02*
X78433000Y-54897651D01*
X71056000Y-52816651D02*
X73325000Y-52816651D01*
X71145000Y-52696651D02*
X73325000Y-52696651D01*
X70699000Y-53416651D02*
X73325000Y-53416651D01*
X70921000Y-53016651D02*
X73325000Y-53016651D01*
X70625000Y-53576651D02*
X73325000Y-53576651D01*
X70451000Y-54056651D02*
X78279000Y-54056651D01*
X70371000Y-54376651D02*
X78359000Y-54376651D01*
X70947000Y-52976651D02*
X73325000Y-52976651D01*
X75405000Y-52776651D02*
X77645000Y-52776651D01*
X75405000Y-51736651D02*
X76531000Y-51736651D01*
X75405000Y-53616651D02*
X78122000Y-53616651D01*
X70313000Y-54737651D02*
X78417000Y-54737651D01*
X71000000Y-52896651D02*
X73325000Y-52896651D01*
X75405000Y-53016651D02*
X77809000Y-53016651D01*
X75405000Y-52296651D02*
X77232000Y-52296651D01*
X71761000Y-52056651D02*
X73325000Y-52056651D01*
X73019000Y-51336651D02*
X75711000Y-51336651D01*
X70288000Y-55057651D02*
X78442000Y-55057651D01*
X70973000Y-52936651D02*
X73325000Y-52936651D01*
X70896000Y-53056651D02*
X73325000Y-53056651D01*
X70643000Y-53536651D02*
X73325000Y-53536651D01*
X75405000Y-51976651D02*
X76870000Y-51976651D01*
X75405000Y-52136651D02*
X77062000Y-52136651D01*
X70803000Y-53216651D02*
X73325000Y-53216651D01*
X72720000Y-51456651D02*
X76010000Y-51456651D01*
X70294000Y-54937651D02*
X78436000Y-54937651D01*
X70398000Y-54256651D02*
X78332000Y-54256651D01*
X70348000Y-54496651D02*
X78382000Y-54496651D01*
X70872000Y-53096651D02*
X73325000Y-53096651D01*
X75405000Y-53656651D02*
X78139000Y-53656651D01*
X71420000Y-52376651D02*
X73325000Y-52376651D01*
X73136000Y-51296651D02*
X75594000Y-51296651D01*
X71115000Y-52736651D02*
X73325000Y-52736651D01*
X70380000Y-54336651D02*
X78350000Y-54336651D01*
X75405000Y-52896651D02*
X77730000Y-52896651D01*
X75405000Y-52576651D02*
X77489000Y-52576651D01*
X75405000Y-52656651D02*
X77554000Y-52656651D01*
X75405000Y-52736651D02*
X77615000Y-52736651D01*
X71668000Y-52136651D02*
X73325000Y-52136651D01*
X70429000Y-54136651D02*
X78301000Y-54136651D01*
X70679000Y-53456651D02*
X73325000Y-53456651D01*
X75405000Y-52936651D02*
X77757000Y-52936651D01*
X75405000Y-53536651D02*
X78087000Y-53536651D01*
X70591000Y-53656651D02*
X73325000Y-53656651D01*
X72050000Y-59627349D02*
X72050000Y-58827349D01*
X75405000Y-51776651D02*
X76593000Y-51776651D01*
X70560000Y-53736651D02*
X73325000Y-53736651D01*
X70328000Y-54617651D02*
X78402000Y-54617651D01*
X75405000Y-53096651D02*
X77858000Y-53096651D01*
X71581000Y-52216651D02*
X73325000Y-52216651D01*
X71539000Y-52256651D02*
X73325000Y-52256651D01*
X75405000Y-52976651D02*
X77783000Y-52976651D01*
X70289000Y-55017651D02*
X78441000Y-55017651D01*
X75405000Y-52416651D02*
X77348000Y-52416651D01*
X75405000Y-53136651D02*
X77882000Y-53136651D01*
X75405000Y-51856651D02*
X76710000Y-51856651D01*
X70285000Y-55177651D02*
X78445000Y-55177651D01*
X75405000Y-51816651D02*
X76652000Y-51816651D01*
X71714000Y-52096651D02*
X73325000Y-52096651D01*
X70323000Y-54657651D02*
X78407000Y-54657651D01*
X71860000Y-51976651D02*
X73325000Y-51976651D01*
X70335000Y-54577651D02*
X78395000Y-54577651D01*
X75405000Y-53056651D02*
X77834000Y-53056651D01*
X70463000Y-54016651D02*
X78267000Y-54016651D01*
X70781000Y-53256651D02*
X73325000Y-53256651D01*
X72199000Y-51736651D02*
X73325000Y-51736651D01*
X75405000Y-52096651D02*
X77016000Y-52096651D01*
X75405000Y-52696651D02*
X77585000Y-52696651D01*
X75405000Y-51696651D02*
X76467000Y-51696651D01*
X72401000Y-51616651D02*
X76329000Y-51616651D01*
X72813000Y-51416651D02*
X75917000Y-51416651D01*
X70661000Y-53496651D02*
X73325000Y-53496651D01*
X73417000Y-51216651D02*
X75313000Y-51216651D01*
X71498000Y-52296651D02*
X73325000Y-52296651D01*
X70300000Y-54857651D02*
X78430000Y-54857651D01*
X75405000Y-52016651D02*
X76921000Y-52016651D01*
X70285000Y-55137651D02*
X78445000Y-55137651D01*
X71458000Y-52336651D02*
X73325000Y-52336651D01*
X70848000Y-53136651D02*
X73325000Y-53136651D01*
X71027000Y-52856651D02*
X73325000Y-52856651D01*
X70286000Y-55097651D02*
X78444000Y-55097651D01*
X71809000Y-52016651D02*
X73325000Y-52016651D01*
X75405000Y-53256651D02*
X77949000Y-53256651D01*
X72475000Y-51576651D02*
X76255000Y-51576651D01*
X75405000Y-52496651D02*
X77420000Y-52496651D01*
X71346000Y-52456651D02*
X73325000Y-52456651D01*
X70530000Y-53816651D02*
X78200000Y-53816651D01*
X71624000Y-52176651D02*
X73325000Y-52176651D01*
X70317000Y-54697651D02*
X78413000Y-54697651D01*
X75405000Y-52176651D02*
X77106000Y-52176651D01*
X75405000Y-52536651D02*
X77455000Y-52536651D01*
X75405000Y-53576651D02*
X78105000Y-53576651D01*
X70502000Y-53896651D02*
X78228000Y-53896651D01*
X75405000Y-53296651D02*
X77971000Y-53296651D01*
X72331000Y-51656651D02*
X76399000Y-51656651D01*
X75405000Y-52056651D02*
X76969000Y-52056651D01*
X70440000Y-54096651D02*
X78290000Y-54096651D01*
X72634000Y-51496651D02*
X76096000Y-51496651D01*
X75405000Y-52616651D02*
X77521000Y-52616651D01*
X71275000Y-52536651D02*
X73325000Y-52536651D01*
X70285000Y-55217651D02*
X78445000Y-55217651D01*
X70308000Y-54777651D02*
X78422000Y-54777651D01*
X70363000Y-54416651D02*
X78367000Y-54416651D01*
X70575000Y-53696651D02*
X73325000Y-53696651D01*
X71965000Y-51896651D02*
X73325000Y-51896651D01*
X73267000Y-51256651D02*
X75463000Y-51256651D01*
X75405000Y-53496651D02*
X78069000Y-53496651D01*
X72912000Y-51376651D02*
X75818000Y-51376651D01*
X75405000Y-52216651D02*
X77149000Y-52216651D01*
X75405000Y-53416651D02*
X78031000Y-53416651D01*
X75405000Y-53176651D02*
X77905000Y-53176651D01*
X71650000Y-59227349D02*
X72450000Y-59227349D01*
X78485000Y-55217651D02*
G75*
G03*
X78485000Y-55217651I-4120000J0D01*
G01*
%TO.C,TP3*%
X71636000Y-91256000D02*
G75*
G03*
X71636000Y-91256000I-700000J0D01*
G01*
%TO.C,TP10*%
X71890000Y-72968000D02*
G75*
G03*
X71890000Y-72968000I-700000J0D01*
G01*
%TO.C,J3*%
X67395000Y-99190000D02*
X66065000Y-99190000D01*
X68665000Y-99190000D02*
X68665000Y-96530000D01*
X73805000Y-99190000D02*
X73805000Y-96530000D01*
X68665000Y-96530000D02*
X73805000Y-96530000D01*
X68665000Y-99190000D02*
X73805000Y-99190000D01*
X66065000Y-99190000D02*
X66065000Y-97860000D01*
%TO.C,R2*%
X62392064Y-88060000D02*
X60937936Y-88060000D01*
X62392064Y-89880000D02*
X60937936Y-89880000D01*
%TO.C,R31*%
X90459064Y-77815000D02*
X89004936Y-77815000D01*
X90459064Y-75995000D02*
X89004936Y-75995000D01*
%TO.C,R1*%
X73002936Y-88060000D02*
X74457064Y-88060000D01*
X73002936Y-89880000D02*
X74457064Y-89880000D01*
%TO.C,R100*%
X62239064Y-77434000D02*
X60784936Y-77434000D01*
X62239064Y-75614000D02*
X60784936Y-75614000D01*
%TO.C,R23*%
X79352936Y-84250000D02*
X80807064Y-84250000D01*
X79352936Y-86070000D02*
X80807064Y-86070000D01*
%TO.C,C10*%
X68129752Y-75614000D02*
X66707248Y-75614000D01*
X68129752Y-77434000D02*
X66707248Y-77434000D01*
%TO.C,D30*%
X88132000Y-83501000D02*
X92192000Y-83501000D01*
X92192000Y-81231000D02*
X88132000Y-81231000D01*
X92192000Y-83501000D02*
X92192000Y-81231000D01*
%TO.C,J1*%
X58490000Y-96530000D02*
X63630000Y-96530000D01*
X55890000Y-99190000D02*
X55890000Y-97860000D01*
X57220000Y-99190000D02*
X55890000Y-99190000D01*
X58490000Y-99190000D02*
X58490000Y-96530000D01*
X58490000Y-99190000D02*
X63630000Y-99190000D01*
X63630000Y-99190000D02*
X63630000Y-96530000D01*
%TO.C,J5*%
X50810000Y-81985000D02*
X50810000Y-89665000D01*
X53470000Y-81985000D02*
X53470000Y-89665000D01*
X50810000Y-79385000D02*
X52140000Y-79385000D01*
X50810000Y-81985000D02*
X53470000Y-81985000D01*
X50810000Y-80715000D02*
X50810000Y-79385000D01*
X50810000Y-89665000D02*
X53470000Y-89665000D01*
%TO.C,R5*%
X68107064Y-88060000D02*
X66652936Y-88060000D01*
X68107064Y-89880000D02*
X66652936Y-89880000D01*
%TO.C,U1*%
X61235000Y-82620000D02*
X61235000Y-86070000D01*
X70105000Y-82620000D02*
X70105000Y-80670000D01*
X61235000Y-82620000D02*
X61235000Y-80670000D01*
X70105000Y-82620000D02*
X70105000Y-84570000D01*
%TO.C,D40*%
X95170000Y-80585000D02*
X92930000Y-80585000D01*
X92930000Y-79865000D02*
X92930000Y-84105000D01*
X95170000Y-79865000D02*
X92930000Y-79865000D01*
X95170000Y-80465000D02*
X92930000Y-80465000D01*
X92930000Y-84105000D02*
X95170000Y-84105000D01*
X94050000Y-77945000D02*
X94050000Y-79865000D01*
X94050000Y-86025000D02*
X94050000Y-84105000D01*
X95170000Y-84105000D02*
X95170000Y-79865000D01*
X95170000Y-80705000D02*
X92930000Y-80705000D01*
%TO.C,R11*%
X68081064Y-72058000D02*
X66626936Y-72058000D01*
X68081064Y-73878000D02*
X66626936Y-73878000D01*
%TO.C,U30*%
X87600000Y-69855000D02*
X87600000Y-75055000D01*
X92900000Y-75055000D02*
X92900000Y-69855000D01*
X92900000Y-69855000D02*
X91250000Y-69855000D01*
X87600000Y-75055000D02*
X92900000Y-75055000D01*
X89250000Y-69855000D02*
X87600000Y-69855000D01*
X89250000Y-69855000D02*
G75*
G03*
X91250000Y-69855000I1000000J0D01*
G01*
%TO.C,J4*%
X88970000Y-99190000D02*
X88970000Y-96530000D01*
X88970000Y-96530000D02*
X94110000Y-96530000D01*
X87700000Y-99190000D02*
X86370000Y-99190000D01*
X88970000Y-99190000D02*
X94110000Y-99190000D01*
X86370000Y-99190000D02*
X86370000Y-97860000D01*
X94110000Y-99190000D02*
X94110000Y-96530000D01*
%TO.C,J52*%
X99765000Y-68650000D02*
X99765000Y-58490000D01*
X92145000Y-58490000D02*
X92145000Y-68650000D01*
X99765000Y-58490000D02*
X92145000Y-58490000D01*
X93415000Y-68650000D02*
X93415000Y-58490000D01*
X92145000Y-68650000D02*
X99765000Y-68650000D01*
%TO.C,D60*%
X87540000Y-94550000D02*
X91600000Y-94550000D01*
X91600000Y-92280000D02*
X87540000Y-92280000D01*
X87540000Y-92280000D02*
X87540000Y-94550000D01*
%TO.C,R22*%
X74457064Y-79170000D02*
X73002936Y-79170000D01*
X74457064Y-80990000D02*
X73002936Y-80990000D01*
%TO.C,J6*%
X73984000Y-94110000D02*
X72654000Y-94110000D01*
X75254000Y-94110000D02*
X77854000Y-94110000D01*
X75254000Y-91450000D02*
X77854000Y-91450000D01*
X72654000Y-94110000D02*
X72654000Y-92780000D01*
X75254000Y-94110000D02*
X75254000Y-91450000D01*
X77854000Y-94110000D02*
X77854000Y-91450000D01*
%TO.C,Q20*%
X77885000Y-80080000D02*
X77885000Y-79430000D01*
X77885000Y-80080000D02*
X77885000Y-81755000D01*
X81005000Y-80080000D02*
X81005000Y-80730000D01*
X81005000Y-80080000D02*
X81005000Y-79430000D01*
%TO.C,R60*%
X85727064Y-94325000D02*
X84272936Y-94325000D01*
X85727064Y-92505000D02*
X84272936Y-92505000D01*
%TO.C,C52*%
X83530000Y-67202252D02*
X83530000Y-65779748D01*
X81710000Y-67202252D02*
X81710000Y-65779748D01*
%TD*%
%LPC*%
D12*
%TO.C,REF\u002A\u002A*%
X96000000Y-94000000D03*
%TD*%
%TO.C,REF\u002A\u002A*%
X54000000Y-94000000D03*
%TD*%
%TO.C,REF\u002A\u002A*%
X96000000Y-54000000D03*
%TD*%
%TO.C,REF\u002A\u002A*%
X54000000Y-54000000D03*
%TD*%
D13*
%TO.C,Q40*%
X88655000Y-89272500D03*
X90555000Y-89272500D03*
X89605000Y-87397500D03*
%TD*%
D14*
%TO.C,U50*%
X79205000Y-64850000D03*
D15*
X76905000Y-71150000D03*
D14*
X76905000Y-64850000D03*
X74605000Y-64850000D03*
%TD*%
D16*
%TO.C,J40*%
X97860000Y-78810000D03*
D17*
X97860000Y-81350000D03*
%TD*%
D16*
%TO.C,J31*%
X97860000Y-71190000D03*
D17*
X97860000Y-73730000D03*
%TD*%
D18*
%TO.C,J50*%
X64840000Y-64109000D03*
D19*
X64840000Y-58109000D03*
D20*
X60140000Y-61109000D03*
%TD*%
D21*
%TO.C,D10*%
X72242500Y-76905000D03*
X75217500Y-76905000D03*
%TD*%
D22*
%TO.C,R20*%
X72180000Y-85160000D03*
X75280000Y-85160000D03*
%TD*%
D23*
%TO.C,J51*%
X54045000Y-61030000D03*
D24*
X54045000Y-66110000D03*
%TD*%
D22*
%TO.C,R21*%
X78530000Y-88970000D03*
X81630000Y-88970000D03*
%TD*%
D16*
%TO.C,J30*%
X97860000Y-88335000D03*
%TD*%
D25*
%TO.C,C1*%
X59417500Y-80080000D03*
X56292500Y-80080000D03*
%TD*%
D16*
%TO.C,J10*%
X52140000Y-73090000D03*
D17*
X52140000Y-75630000D03*
%TD*%
D16*
%TO.C,J2*%
X77555000Y-97860000D03*
D17*
X80095000Y-97860000D03*
X82635000Y-97860000D03*
%TD*%
D22*
%TO.C,R4*%
X65830000Y-92526000D03*
X68930000Y-92526000D03*
%TD*%
D26*
%TO.C,R30*%
X91282000Y-79572000D03*
X88182000Y-79572000D03*
%TD*%
D22*
%TO.C,R3*%
X60242000Y-92526000D03*
X63342000Y-92526000D03*
%TD*%
D27*
%TO.C,D50*%
X80334000Y-60268000D03*
D28*
X90494000Y-60268000D03*
%TD*%
D13*
%TO.C,Q30*%
X78495000Y-75937500D03*
X80395000Y-75937500D03*
X79445000Y-74062500D03*
%TD*%
D29*
%TO.C,C51*%
X71190000Y-64547500D03*
X71190000Y-67672500D03*
%TD*%
D22*
%TO.C,R10*%
X65830000Y-70555000D03*
X68930000Y-70555000D03*
%TD*%
D27*
%TO.C,C50*%
X74365000Y-57717651D03*
D30*
X74365000Y-52717651D03*
%TD*%
D31*
%TO.C,TP3*%
X70936000Y-91256000D03*
%TD*%
%TO.C,TP10*%
X71190000Y-72968000D03*
%TD*%
D16*
%TO.C,J3*%
X67395000Y-97860000D03*
D17*
X69935000Y-97860000D03*
X72475000Y-97860000D03*
%TD*%
D26*
%TO.C,R2*%
X63215000Y-88970000D03*
X60115000Y-88970000D03*
%TD*%
%TO.C,R31*%
X91282000Y-76905000D03*
X88182000Y-76905000D03*
%TD*%
D22*
%TO.C,R1*%
X72180000Y-88970000D03*
X75280000Y-88970000D03*
%TD*%
D26*
%TO.C,R100*%
X63062000Y-76524000D03*
X59962000Y-76524000D03*
%TD*%
D22*
%TO.C,R23*%
X78530000Y-85160000D03*
X81630000Y-85160000D03*
%TD*%
D25*
%TO.C,C10*%
X68981000Y-76524000D03*
X65856000Y-76524000D03*
%TD*%
D32*
%TO.C,D30*%
X91219500Y-82366000D03*
X88244500Y-82366000D03*
%TD*%
D16*
%TO.C,J1*%
X57220000Y-97860000D03*
D17*
X59760000Y-97860000D03*
X62300000Y-97860000D03*
%TD*%
%TO.C,J5*%
X52140000Y-88335000D03*
X52140000Y-85795000D03*
X52140000Y-83255000D03*
D16*
X52140000Y-80715000D03*
%TD*%
D26*
%TO.C,R5*%
X68930000Y-88970000D03*
X65830000Y-88970000D03*
%TD*%
D33*
%TO.C,U1*%
X61860000Y-85095000D03*
X63130000Y-85095000D03*
X64400000Y-85095000D03*
X65670000Y-85095000D03*
X66940000Y-85095000D03*
X68210000Y-85095000D03*
X69480000Y-85095000D03*
X69480000Y-80145000D03*
X68210000Y-80145000D03*
X66940000Y-80145000D03*
X65670000Y-80145000D03*
X64400000Y-80145000D03*
X63130000Y-80145000D03*
X61860000Y-80145000D03*
%TD*%
D28*
%TO.C,D40*%
X94050000Y-87065000D03*
D27*
X94050000Y-76905000D03*
%TD*%
D26*
%TO.C,R11*%
X68904000Y-72968000D03*
X65804000Y-72968000D03*
%TD*%
D27*
%TO.C,U30*%
X86440000Y-71185000D03*
D28*
X86440000Y-73725000D03*
X94060000Y-73725000D03*
X94060000Y-71185000D03*
%TD*%
D16*
%TO.C,J4*%
X87700000Y-97860000D03*
D17*
X90240000Y-97860000D03*
X92780000Y-97860000D03*
%TD*%
D23*
%TO.C,J52*%
X95955000Y-61030000D03*
D24*
X95955000Y-66110000D03*
%TD*%
D21*
%TO.C,D60*%
X88512500Y-93415000D03*
X91487500Y-93415000D03*
%TD*%
D26*
%TO.C,R22*%
X75280000Y-80080000D03*
X72180000Y-80080000D03*
%TD*%
D16*
%TO.C,J6*%
X73984000Y-92780000D03*
D17*
X76524000Y-92780000D03*
%TD*%
D13*
%TO.C,Q20*%
X78495000Y-81017500D03*
X80395000Y-81017500D03*
X79445000Y-79142500D03*
%TD*%
D26*
%TO.C,R60*%
X86550000Y-93415000D03*
X83450000Y-93415000D03*
%TD*%
D34*
%TO.C,C52*%
X82620000Y-68053500D03*
X82620000Y-64928500D03*
%TD*%
M02*
