M48
; DRILL file {KiCad 6.0.2+dfsg-1} date Tue 26 Sep 2023 10:37:20 PM CEST
; FORMAT={-:-/ absolute / metric / decimal}
; #@! TF.CreationDate,2023-09-26T22:37:20+02:00
; #@! TF.GenerationSoftware,Kicad,Pcbnew,6.0.2+dfsg-1
; #@! TF.FileFunction,Plated,1,2,PTH
FMAT,2
METRIC
; #@! TA.AperFunction,Plated,PTH,ViaDrill
T1C0.400
; #@! TA.AperFunction,Plated,PTH,ComponentDrill
T2C0.800
; #@! TA.AperFunction,Plated,PTH,ComponentDrill
T3C1.000
; #@! TA.AperFunction,Plated,PTH,ComponentDrill
T4C1.520
%
G90
G05
T1
X56.331Y-78.048
X57.22Y-83.255
X57.22Y-85.795
X61.665Y-71.19
X63.951Y-72.968
X64.205Y-87.065
X64.459Y-78.302
X65.67Y-78.234
X66.11Y-87.065
X67.38Y-88.97
X69.285Y-90.875
X70.555Y-87.7
X72.46Y-81.604
X73.349Y-67.761
X73.73Y-78.302
X73.73Y-80.08
X73.73Y-88.97
X75.0Y-67.38
X76.765Y-87.205
X76.905Y-88.97
X78.175Y-79.445
X80.395Y-77.86
X80.715Y-64.84
X80.715Y-74.365
X81.35Y-93.415
X83.255Y-85.16
X83.89Y-88.97
X85.16Y-75.0
X85.287Y-64.967
X87.065Y-85.16
X89.605Y-73.73
X92.0Y-88.97
T2
X74.365Y-52.718
X74.365Y-57.718
X80.334Y-60.268
X86.44Y-71.185
X86.44Y-73.725
X90.494Y-60.268
X94.05Y-76.905
X94.05Y-87.065
X94.06Y-71.185
X94.06Y-73.725
T3
X52.14Y-73.09
X52.14Y-75.63
X52.14Y-80.715
X52.14Y-83.255
X52.14Y-85.795
X52.14Y-88.335
X57.22Y-97.86
X59.76Y-97.86
X62.3Y-97.86
X67.395Y-97.86
X69.935Y-97.86
X72.475Y-97.86
X73.984Y-92.78
X76.524Y-92.78
X77.555Y-97.86
X80.095Y-97.86
X82.635Y-97.86
X87.7Y-97.86
X90.24Y-97.86
X92.78Y-97.86
X97.86Y-71.19
X97.86Y-73.73
X97.86Y-78.81
X97.86Y-81.35
X97.86Y-88.335
T4
X54.045Y-61.03
X54.045Y-66.11
X95.955Y-61.03
X95.955Y-66.11
T3
X60.14Y-60.109G85X60.14Y-62.109
G05
X65.84Y-58.109G85X63.84Y-58.109
G05
X65.84Y-64.109G85X63.84Y-64.109
G05
T0
M30
